<?xml version="1.0" standalone="no"?>
 <!DOCTYPE svg PUBLIC "-//W3C//DTD SVG 1.1//EN" 
 "http://www.w3.org/Graphics/SVG/1.1/DTD/svg11.dtd"> 
<svg
  xmlns:svg="http://www.w3.org/2000/svg"
  xmlns="http://www.w3.org/2000/svg"
  xmlns:xlink="http://www.w3.org/1999/xlink"
  version="1.1"
  width="10.3632mm" height="30.8864mm" viewBox="0.0000 0.0000 10.3632 30.8864">
<title>SVG Image created as Pedal_Proxy_Sensor_PCB-F_Silkscreen.svg date 2024/06/08 06:15:15 </title>
  <desc>Image generated by PCBNEW </desc>
<g style="fill:#000000; fill-opacity:1.0000;stroke:#000000; stroke-opacity:1.0000;
stroke-linecap:round; stroke-linejoin:round;"
 transform="translate(0 0) scale(1 1)">
</g>
<g style="fill:#000000; fill-opacity:0.0; 
stroke:#000000; stroke-width:0.0000; stroke-opacity:1; 
stroke-linecap:round; stroke-linejoin:round;">
</g>
<g style="fill:#000000; fill-opacity:0.0; 
stroke:#000000; stroke-width:0.2000; stroke-opacity:1; 
stroke-linecap:round; stroke-linejoin:round;">
<g transform="rotate(-90.000000 9.9765 29.3965)">
<text x="9.9765" y="29.3965"
textLength="8.1314" font-size="1.6000" lengthAdjust="spacingAndGlyphs"
text-anchor="start" opacity="0">-  +  S</text>
</g>
<g class="stroked-text"><desc>-  +  S</desc>
<path d="M9.3621 28.9792
L9.3621 28.0649
" />
<path d="M9.3621 25.6649
L9.3621 24.7506
" />
<path d="M9.8192 25.2078
L8.9050 25.2078
" />
<path d="M9.7621 22.4078
L9.8192 22.2363
" />
<path d="M9.8192 22.2363
L9.8192 21.9506
" />
<path d="M9.8192 21.9506
L9.7621 21.8363
" />
<path d="M9.7621 21.8363
L9.7050 21.7792
" />
<path d="M9.7050 21.7792
L9.5907 21.7221
" />
<path d="M9.5907 21.7221
L9.4764 21.7221
" />
<path d="M9.4764 21.7221
L9.3621 21.7792
" />
<path d="M9.3621 21.7792
L9.3050 21.8363
" />
<path d="M9.3050 21.8363
L9.2478 21.9506
" />
<path d="M9.2478 21.9506
L9.1907 22.1792
" />
<path d="M9.1907 22.1792
L9.1335 22.2935
" />
<path d="M9.1335 22.2935
L9.0764 22.3506
" />
<path d="M9.0764 22.3506
L8.9621 22.4078
" />
<path d="M8.9621 22.4078
L8.8478 22.4078
" />
<path d="M8.8478 22.4078
L8.7335 22.3506
" />
<path d="M8.7335 22.3506
L8.6764 22.2935
" />
<path d="M8.6764 22.2935
L8.6192 22.1792
" />
<path d="M8.6192 22.1792
L8.6192 21.8935
" />
<path d="M8.6192 21.8935
L8.6764 21.7221
" />
</g></g>
<g style="fill:#000000; fill-opacity:0.0; 
stroke:#000000; stroke-width:0.1000; stroke-opacity:1; 
stroke-linecap:round; stroke-linejoin:round;">
<text x="2.9265" y="25.8465"
textLength="1.3800" font-size="0.8000" lengthAdjust="spacingAndGlyphs"
text-anchor="middle" opacity="0">U1</text>
<g class="stroked-text"><desc>U1</desc>
<path d="M2.4694 25.2189
L2.4694 25.7046
" />
<path d="M2.4694 25.7046
L2.4979 25.7617
" />
<path d="M2.4979 25.7617
L2.5265 25.7903
" />
<path d="M2.5265 25.7903
L2.5836 25.8189
" />
<path d="M2.5836 25.8189
L2.6979 25.8189
" />
<path d="M2.6979 25.8189
L2.7551 25.7903
" />
<path d="M2.7551 25.7903
L2.7836 25.7617
" />
<path d="M2.7836 25.7617
L2.8122 25.7046
" />
<path d="M2.8122 25.7046
L2.8122 25.2189
" />
<path d="M3.4122 25.8189
L3.0694 25.8189
" />
<path d="M3.2408 25.8189
L3.2408 25.2189
" />
<path d="M3.2408 25.2189
L3.1836 25.3046
" />
<path d="M3.1836 25.3046
L3.1265 25.3617
" />
<path d="M3.1265 25.3617
L3.0694 25.3903
" />
</g><text x="5.7765" y="21.0965"
textLength="1.8086" font-size="0.8000" lengthAdjust="spacingAndGlyphs"
text-anchor="middle" opacity="0">68k</text>
<g class="stroked-text"><desc>68k</desc>
<path d="M5.3622 20.4689
L5.2479 20.4689
" />
<path d="M5.2479 20.4689
L5.1908 20.4974
" />
<path d="M5.1908 20.4974
L5.1622 20.5260
" />
<path d="M5.1622 20.5260
L5.1051 20.6117
" />
<path d="M5.1051 20.6117
L5.0765 20.7260
" />
<path d="M5.0765 20.7260
L5.0765 20.9546
" />
<path d="M5.0765 20.9546
L5.1051 21.0117
" />
<path d="M5.1051 21.0117
L5.1336 21.0403
" />
<path d="M5.1336 21.0403
L5.1908 21.0689
" />
<path d="M5.1908 21.0689
L5.3051 21.0689
" />
<path d="M5.3051 21.0689
L5.3622 21.0403
" />
<path d="M5.3622 21.0403
L5.3908 21.0117
" />
<path d="M5.3908 21.0117
L5.4194 20.9546
" />
<path d="M5.4194 20.9546
L5.4194 20.8117
" />
<path d="M5.4194 20.8117
L5.3908 20.7546
" />
<path d="M5.3908 20.7546
L5.3622 20.7260
" />
<path d="M5.3622 20.7260
L5.3051 20.6974
" />
<path d="M5.3051 20.6974
L5.1908 20.6974
" />
<path d="M5.1908 20.6974
L5.1336 20.7260
" />
<path d="M5.1336 20.7260
L5.1051 20.7546
" />
<path d="M5.1051 20.7546
L5.0765 20.8117
" />
<path d="M5.7622 20.7260
L5.7051 20.6974
" />
<path d="M5.7051 20.6974
L5.6765 20.6689
" />
<path d="M5.6765 20.6689
L5.6479 20.6117
" />
<path d="M5.6479 20.6117
L5.6479 20.5832
" />
<path d="M5.6479 20.5832
L5.6765 20.5260
" />
<path d="M5.6765 20.5260
L5.7051 20.4974
" />
<path d="M5.7051 20.4974
L5.7622 20.4689
" />
<path d="M5.7622 20.4689
L5.8765 20.4689
" />
<path d="M5.8765 20.4689
L5.9336 20.4974
" />
<path d="M5.9336 20.4974
L5.9622 20.5260
" />
<path d="M5.9622 20.5260
L5.9908 20.5832
" />
<path d="M5.9908 20.5832
L5.9908 20.6117
" />
<path d="M5.9908 20.6117
L5.9622 20.6689
" />
<path d="M5.9622 20.6689
L5.9336 20.6974
" />
<path d="M5.9336 20.6974
L5.8765 20.7260
" />
<path d="M5.8765 20.7260
L5.7622 20.7260
" />
<path d="M5.7622 20.7260
L5.7051 20.7546
" />
<path d="M5.7051 20.7546
L5.6765 20.7832
" />
<path d="M5.6765 20.7832
L5.6479 20.8403
" />
<path d="M5.6479 20.8403
L5.6479 20.9546
" />
<path d="M5.6479 20.9546
L5.6765 21.0117
" />
<path d="M5.6765 21.0117
L5.7051 21.0403
" />
<path d="M5.7051 21.0403
L5.7622 21.0689
" />
<path d="M5.7622 21.0689
L5.8765 21.0689
" />
<path d="M5.8765 21.0689
L5.9336 21.0403
" />
<path d="M5.9336 21.0403
L5.9622 21.0117
" />
<path d="M5.9622 21.0117
L5.9908 20.9546
" />
<path d="M5.9908 20.9546
L5.9908 20.8403
" />
<path d="M5.9908 20.8403
L5.9622 20.7832
" />
<path d="M5.9622 20.7832
L5.9336 20.7546
" />
<path d="M5.9336 20.7546
L5.8765 20.7260
" />
<path d="M6.2479 21.0689
L6.2479 20.4689
" />
<path d="M6.3051 20.8403
L6.4765 21.0689
" />
<path d="M6.4765 20.6689
L6.2479 20.8974
" />
</g><text x="5.6765" y="21.8965"
textLength="1.8086" font-size="0.8000" lengthAdjust="spacingAndGlyphs"
text-anchor="middle" opacity="0">10k</text>
<g class="stroked-text"><desc>10k</desc>
<path d="M5.3194 21.8689
L4.9765 21.8689
" />
<path d="M5.1479 21.8689
L5.1479 21.2689
" />
<path d="M5.1479 21.2689
L5.0908 21.3546
" />
<path d="M5.0908 21.3546
L5.0336 21.4117
" />
<path d="M5.0336 21.4117
L4.9765 21.4403
" />
<path d="M5.6908 21.2689
L5.7479 21.2689
" />
<path d="M5.7479 21.2689
L5.8051 21.2974
" />
<path d="M5.8051 21.2974
L5.8336 21.3260
" />
<path d="M5.8336 21.3260
L5.8622 21.3832
" />
<path d="M5.8622 21.3832
L5.8908 21.4974
" />
<path d="M5.8908 21.4974
L5.8908 21.6403
" />
<path d="M5.8908 21.6403
L5.8622 21.7546
" />
<path d="M5.8622 21.7546
L5.8336 21.8117
" />
<path d="M5.8336 21.8117
L5.8051 21.8403
" />
<path d="M5.8051 21.8403
L5.7479 21.8689
" />
<path d="M5.7479 21.8689
L5.6908 21.8689
" />
<path d="M5.6908 21.8689
L5.6336 21.8403
" />
<path d="M5.6336 21.8403
L5.6051 21.8117
" />
<path d="M5.6051 21.8117
L5.5765 21.7546
" />
<path d="M5.5765 21.7546
L5.5479 21.6403
" />
<path d="M5.5479 21.6403
L5.5479 21.4974
" />
<path d="M5.5479 21.4974
L5.5765 21.3832
" />
<path d="M5.5765 21.3832
L5.6051 21.3260
" />
<path d="M5.6051 21.3260
L5.6336 21.2974
" />
<path d="M5.6336 21.2974
L5.6908 21.2689
" />
<path d="M6.1479 21.8689
L6.1479 21.2689
" />
<path d="M6.2051 21.6403
L6.3765 21.8689
" />
<path d="M6.3765 21.4689
L6.1479 21.6974
" />
</g><text x="5.1765" y="29.2465"
textLength="1.8943" font-size="0.8000" lengthAdjust="spacingAndGlyphs"
text-anchor="middle" opacity="0">190</text>
<g class="stroked-text"><desc>190</desc>
<path d="M4.7765 29.2189
L4.4336 29.2189
" />
<path d="M4.6051 29.2189
L4.6051 28.6189
" />
<path d="M4.6051 28.6189
L4.5479 28.7046
" />
<path d="M4.5479 28.7046
L4.4908 28.7617
" />
<path d="M4.4908 28.7617
L4.4336 28.7903
" />
<path d="M5.0622 29.2189
L5.1765 29.2189
" />
<path d="M5.1765 29.2189
L5.2336 29.1903
" />
<path d="M5.2336 29.1903
L5.2622 29.1617
" />
<path d="M5.2622 29.1617
L5.3194 29.0760
" />
<path d="M5.3194 29.0760
L5.3479 28.9617
" />
<path d="M5.3479 28.9617
L5.3479 28.7332
" />
<path d="M5.3479 28.7332
L5.3194 28.6760
" />
<path d="M5.3194 28.6760
L5.2908 28.6474
" />
<path d="M5.2908 28.6474
L5.2336 28.6189
" />
<path d="M5.2336 28.6189
L5.1194 28.6189
" />
<path d="M5.1194 28.6189
L5.0622 28.6474
" />
<path d="M5.0622 28.6474
L5.0336 28.6760
" />
<path d="M5.0336 28.6760
L5.0051 28.7332
" />
<path d="M5.0051 28.7332
L5.0051 28.8760
" />
<path d="M5.0051 28.8760
L5.0336 28.9332
" />
<path d="M5.0336 28.9332
L5.0622 28.9617
" />
<path d="M5.0622 28.9617
L5.1194 28.9903
" />
<path d="M5.1194 28.9903
L5.2336 28.9903
" />
<path d="M5.2336 28.9903
L5.2908 28.9617
" />
<path d="M5.2908 28.9617
L5.3194 28.9332
" />
<path d="M5.3194 28.9332
L5.3479 28.8760
" />
<path d="M5.7194 28.6189
L5.7765 28.6189
" />
<path d="M5.7765 28.6189
L5.8336 28.6474
" />
<path d="M5.8336 28.6474
L5.8622 28.6760
" />
<path d="M5.8622 28.6760
L5.8908 28.7332
" />
<path d="M5.8908 28.7332
L5.9194 28.8474
" />
<path d="M5.9194 28.8474
L5.9194 28.9903
" />
<path d="M5.9194 28.9903
L5.8908 29.1046
" />
<path d="M5.8908 29.1046
L5.8622 29.1617
" />
<path d="M5.8622 29.1617
L5.8336 29.1903
" />
<path d="M5.8336 29.1903
L5.7765 29.2189
" />
<path d="M5.7765 29.2189
L5.7194 29.2189
" />
<path d="M5.7194 29.2189
L5.6622 29.1903
" />
<path d="M5.6622 29.1903
L5.6336 29.1617
" />
<path d="M5.6336 29.1617
L5.6051 29.1046
" />
<path d="M5.6051 29.1046
L5.5765 28.9903
" />
<path d="M5.5765 28.9903
L5.5765 28.8474
" />
<path d="M5.5765 28.8474
L5.6051 28.7332
" />
<path d="M5.6051 28.7332
L5.6336 28.6760
" />
<path d="M5.6336 28.6760
L5.6622 28.6474
" />
<path d="M5.6622 28.6474
L5.7194 28.6189
" />
</g><text x="5.7765" y="17.7465"
textLength="1.3800" font-size="0.8000" lengthAdjust="spacingAndGlyphs"
text-anchor="middle" opacity="0">Q1</text>
<g class="stroked-text"><desc>Q1</desc>
<path d="M5.7194 17.7760
L5.6622 17.7474
" />
<path d="M5.6622 17.7474
L5.6051 17.6903
" />
<path d="M5.6051 17.6903
L5.5194 17.6046
" />
<path d="M5.5194 17.6046
L5.4622 17.5760
" />
<path d="M5.4622 17.5760
L5.4051 17.5760
" />
<path d="M5.4336 17.7189
L5.3765 17.6903
" />
<path d="M5.3765 17.6903
L5.3194 17.6332
" />
<path d="M5.3194 17.6332
L5.2908 17.5189
" />
<path d="M5.2908 17.5189
L5.2908 17.3189
" />
<path d="M5.2908 17.3189
L5.3194 17.2046
" />
<path d="M5.3194 17.2046
L5.3765 17.1474
" />
<path d="M5.3765 17.1474
L5.4336 17.1189
" />
<path d="M5.4336 17.1189
L5.5479 17.1189
" />
<path d="M5.5479 17.1189
L5.6051 17.1474
" />
<path d="M5.6051 17.1474
L5.6622 17.2046
" />
<path d="M5.6622 17.2046
L5.6908 17.3189
" />
<path d="M5.6908 17.3189
L5.6908 17.5189
" />
<path d="M5.6908 17.5189
L5.6622 17.6332
" />
<path d="M5.6622 17.6332
L5.6051 17.6903
" />
<path d="M5.6051 17.6903
L5.5479 17.7189
" />
<path d="M5.5479 17.7189
L5.4336 17.7189
" />
<path d="M6.2622 17.7189
L5.9194 17.7189
" />
<path d="M6.0908 17.7189
L6.0908 17.1189
" />
<path d="M6.0908 17.1189
L6.0336 17.2046
" />
<path d="M6.0336 17.2046
L5.9765 17.2617
" />
<path d="M5.9765 17.2617
L5.9194 17.2903
" />
</g></g>
<g style="fill:#000000; fill-opacity:0.0; 
stroke:#000000; stroke-width:0.1250; stroke-opacity:1; 
stroke-linecap:round; stroke-linejoin:round;">
<text x="2.2265" y="12.7965"
textLength="1.9693" font-size="0.8000" lengthAdjust="spacingAndGlyphs"
text-anchor="middle" opacity="0">330</text>
<g class="stroked-text"><desc>330</desc>
<path d="M1.4551 12.1676
L1.8265 12.1676
" />
<path d="M1.8265 12.1676
L1.6265 12.3961
" />
<path d="M1.6265 12.3961
L1.7122 12.3961
" />
<path d="M1.7122 12.3961
L1.7694 12.4247
" />
<path d="M1.7694 12.4247
L1.7979 12.4533
" />
<path d="M1.7979 12.4533
L1.8265 12.5104
" />
<path d="M1.8265 12.5104
L1.8265 12.6533
" />
<path d="M1.8265 12.6533
L1.7979 12.7104
" />
<path d="M1.7979 12.7104
L1.7694 12.7390
" />
<path d="M1.7694 12.7390
L1.7122 12.7676
" />
<path d="M1.7122 12.7676
L1.5408 12.7676
" />
<path d="M1.5408 12.7676
L1.4836 12.7390
" />
<path d="M1.4836 12.7390
L1.4551 12.7104
" />
<path d="M2.0265 12.1676
L2.3979 12.1676
" />
<path d="M2.3979 12.1676
L2.1979 12.3961
" />
<path d="M2.1979 12.3961
L2.2836 12.3961
" />
<path d="M2.2836 12.3961
L2.3408 12.4247
" />
<path d="M2.3408 12.4247
L2.3694 12.4533
" />
<path d="M2.3694 12.4533
L2.3979 12.5104
" />
<path d="M2.3979 12.5104
L2.3979 12.6533
" />
<path d="M2.3979 12.6533
L2.3694 12.7104
" />
<path d="M2.3694 12.7104
L2.3408 12.7390
" />
<path d="M2.3408 12.7390
L2.2836 12.7676
" />
<path d="M2.2836 12.7676
L2.1122 12.7676
" />
<path d="M2.1122 12.7676
L2.0551 12.7390
" />
<path d="M2.0551 12.7390
L2.0265 12.7104
" />
<path d="M2.7694 12.1676
L2.8265 12.1676
" />
<path d="M2.8265 12.1676
L2.8836 12.1961
" />
<path d="M2.8836 12.1961
L2.9122 12.2247
" />
<path d="M2.9122 12.2247
L2.9408 12.2819
" />
<path d="M2.9408 12.2819
L2.9694 12.3961
" />
<path d="M2.9694 12.3961
L2.9694 12.5390
" />
<path d="M2.9694 12.5390
L2.9408 12.6533
" />
<path d="M2.9408 12.6533
L2.9122 12.7104
" />
<path d="M2.9122 12.7104
L2.8836 12.7390
" />
<path d="M2.8836 12.7390
L2.8265 12.7676
" />
<path d="M2.8265 12.7676
L2.7694 12.7676
" />
<path d="M2.7694 12.7676
L2.7122 12.7390
" />
<path d="M2.7122 12.7390
L2.6836 12.7104
" />
<path d="M2.6836 12.7104
L2.6551 12.6533
" />
<path d="M2.6551 12.6533
L2.6265 12.5390
" />
<path d="M2.6265 12.5390
L2.6265 12.3961
" />
<path d="M2.6265 12.3961
L2.6551 12.2819
" />
<path d="M2.6551 12.2819
L2.6836 12.2247
" />
<path d="M2.6836 12.2247
L2.7122 12.1961
" />
<path d="M2.7122 12.1961
L2.7694 12.1676
" />
</g></g>
<g style="fill:#000000; fill-opacity:0.0; 
stroke:#000000; stroke-width:0.1000; stroke-opacity:1; 
stroke-linecap:round; stroke-linejoin:round;">
<text x="6.7765" y="15.8965"
textLength="1.3514" font-size="0.8000" lengthAdjust="spacingAndGlyphs"
text-anchor="middle" opacity="0">D1</text>
<g class="stroked-text"><desc>D1</desc>
<path d="M6.3336 15.8689
L6.3336 15.2689
" />
<path d="M6.3336 15.2689
L6.4765 15.2689
" />
<path d="M6.4765 15.2689
L6.5622 15.2974
" />
<path d="M6.5622 15.2974
L6.6194 15.3546
" />
<path d="M6.6194 15.3546
L6.6479 15.4117
" />
<path d="M6.6479 15.4117
L6.6765 15.5260
" />
<path d="M6.6765 15.5260
L6.6765 15.6117
" />
<path d="M6.6765 15.6117
L6.6479 15.7260
" />
<path d="M6.6479 15.7260
L6.6194 15.7832
" />
<path d="M6.6194 15.7832
L6.5622 15.8403
" />
<path d="M6.5622 15.8403
L6.4765 15.8689
" />
<path d="M6.4765 15.8689
L6.3336 15.8689
" />
<path d="M7.2479 15.8689
L6.9051 15.8689
" />
<path d="M7.0765 15.8689
L7.0765 15.2689
" />
<path d="M7.0765 15.2689
L7.0194 15.3546
" />
<path d="M7.0194 15.3546
L6.9622 15.4117
" />
<path d="M6.9622 15.4117
L6.9051 15.4403
" />
</g></g>
<g style="fill:#000000; fill-opacity:0.0; 
stroke:#000000; stroke-width:0.1500; stroke-opacity:1; 
stroke-linecap:round; stroke-linejoin:round;">
<path d="M4.7665 26.5965
L4.7665 24.0465
" />
<path d="M4.7665 26.5965
L4.4665 26.9465
" />
<path d="M4.7665 24.0465
L4.5665 24.0465
" />
<path d="M1.1665 26.9465
L1.3665 26.9465
" />
<path d="M1.1665 26.9465
L1.1665 24.0465
" />
<path d="M1.1665 24.0465
L1.3665 24.0465
" />
<circle cx="3.8665" cy="28.7965" r="0.1000" /> 
<path d="M3.0718 20.2740
L3.5812 20.2740
" />
<path d="M3.0718 21.3190
L3.5812 21.3190
" />
<path d="M5.0040 23.8512
L5.0040 23.3418
" />
<path d="M6.0490 23.8512
L6.0490 23.3418
" />
<path d="M6.0490 26.6118
L6.0490 27.1212
" />
<path d="M5.0040 26.6118
L5.0040 27.1212
" />
<path d="M1.7965 16.6365
L1.7965 19.7965
" />
<path d="M1.7965 16.6365
L2.7265 16.6365
" />
<path d="M4.9565 16.6365
L4.9565 18.0965
" />
<path d="M4.9565 16.6365
L4.0265 16.6365
" />
</g>
<g style="fill:#000000; fill-opacity:0.0; 
stroke:#000000; stroke-width:0.1200; stroke-opacity:1; 
stroke-linecap:round; stroke-linejoin:round;">
<path d="M1.3915 15.0236
L1.3915 14.5694
" />
<path d="M2.8615 15.0236
L2.8615 14.5694
" />
<g >
</g>
<g >
</g>
<g >
</g>
<g >
</g>
<g >
</g>
<g >
</g>
<g >
</g>
<g >
</g>
<g >
</g>
<g >
</g>
<g >
</g>
<g >
</g>
</g>
<g style="fill:#000000; fill-opacity:0.0; 
stroke:#000000; stroke-width:0.1200; stroke-opacity:1; 
stroke-linecap:round; stroke-linejoin:round;">
</g>
<g style="fill:#000000; fill-opacity:0.0; 
stroke:#000000; stroke-width:0.1000; stroke-opacity:1; 
stroke-linecap:round; stroke-linejoin:round;">
<path style="fill:#000000; fill-opacity:0.0; 
stroke:#000000; stroke-width:0.1000; stroke-opacity:1; 
stroke-linecap:round; stroke-linejoin:round;fill:none"
d="M 1.3265,11.4965
10.3265,11.4965
10.3265,29.4965
1.3265,29.4965
Z" /> 
<g >
</g>
<g >
</g>
<g >
</g>
<g >
</g>
<g >
</g>
<g >
</g>
<g >
</g>
<g >
</g>
<g >
</g>
<g >
</g>
<g >
</g>
<g >
</g>
</g> 
</svg>
