<?xml version="1.0" standalone="no"?>
 <!DOCTYPE svg PUBLIC "-//W3C//DTD SVG 1.1//EN" 
 "http://www.w3.org/Graphics/SVG/1.1/DTD/svg11.dtd"> 
<svg
  xmlns:svg="http://www.w3.org/2000/svg"
  xmlns="http://www.w3.org/2000/svg"
  xmlns:xlink="http://www.w3.org/1999/xlink"
  version="1.1"
  width="10.3632mm" height="30.8864mm" viewBox="0.0000 0.0000 10.3632 30.8864">
<title>SVG Image created as Pedal_Proxy_Sensor_PCB-B_Cu.svg date 2024/06/08 06:15:15 </title>
  <desc>Image generated by PCBNEW </desc>
<g style="fill:#000000; fill-opacity:1.0000;stroke:#000000; stroke-opacity:1.0000;
stroke-linecap:round; stroke-linejoin:round;"
 transform="translate(0 0) scale(1 1)">
</g>
<g style="fill:#000000; fill-opacity:0.0; 
stroke:#000000; stroke-width:0.0000; stroke-opacity:1; 
stroke-linecap:round; stroke-linejoin:round;">
<g >
</g>
<g >
</g>
<g >
</g>
<g >
</g>
<g >
</g>
<g >
</g>
<g >
</g>
<g >
</g>
<g style="fill:#000000; fill-opacity:0.0; 
stroke:#000000; stroke-width:0.0000; stroke-opacity:1; 
stroke-linecap:round; stroke-linejoin:round;">
</g>
<g style="fill:#000000; fill-opacity:0.0; 
stroke:#000000; stroke-width:0.0000; stroke-opacity:1; 
stroke-linecap:round; stroke-linejoin:round;">
</g>
<g style="fill:#000000; fill-opacity:1.0000; 
stroke:#000000; stroke-width:0.0000; stroke-opacity:1; 
stroke-linecap:round; stroke-linejoin:round;">
<path style="fill:#000000; fill-opacity:1.0000; 
stroke:#000000; stroke-width:0.0000; stroke-opacity:1; 
stroke-linecap:round; stroke-linejoin:round;fill-rule:evenodd;"
d="M 8.4265,28.8237
6.2265,28.8237
6.2265,27.0237
8.4265,27.0237
Z" /> 
<path style="fill:#000000; fill-opacity:1.0000; 
stroke:#000000; stroke-width:0.0000; stroke-opacity:1; 
stroke-linecap:round; stroke-linejoin:round;fill-rule:evenodd;"
d="M 6.2765,26.3237
6.1928,26.3159
6.0662,26.2716
5.9583,26.1919
5.8786,26.0840
5.8343,25.9574
5.8265,25.8737
5.8265,24.9737
5.8343,24.8901
5.8786,24.7634
5.9583,24.6555
6.0662,24.5759
6.1928,24.5316
6.2765,24.5237
7.5765,24.5237
7.6602,24.5316
7.7868,24.5759
7.8947,24.6555
7.9744,24.7634
8.0187,24.8901
8.0265,24.9737
8.0265,25.8737
8.0187,25.9574
7.9744,26.0840
7.8947,26.1919
7.7868,26.2716
7.6602,26.3159
7.5765,26.3237
Z" /> 
</g>
<g style="fill:#000000; fill-opacity:1.0000; 
stroke:#000000; stroke-width:1.8000; stroke-opacity:1; 
stroke-linecap:round; stroke-linejoin:round;">
</g>
<g style="fill:#000000; fill-opacity:0.0; 
stroke:#000000; stroke-width:1.8000; stroke-opacity:1; 
stroke-linecap:round; stroke-linejoin:round;">
<path d="M6.7265 22.9237
L7.1265 22.9237
" />
</g>
<g >
</g>
<g style="fill:#000000; fill-opacity:0.0; 
stroke:#000000; stroke-width:1.8000; stroke-opacity:1; 
stroke-linecap:round; stroke-linejoin:round;">
</g>
<g style="fill:#000000; fill-opacity:0.0; 
stroke:#000000; stroke-width:0.0000; stroke-opacity:1; 
stroke-linecap:round; stroke-linejoin:round;">
</g>
<g style="fill:#000000; fill-opacity:1.0000; 
stroke:#000000; stroke-width:0.0000; stroke-opacity:1; 
stroke-linecap:round; stroke-linejoin:round;">
<path style="fill:#000000; fill-opacity:1.0000; 
stroke:#000000; stroke-width:0.0000; stroke-opacity:1; 
stroke-linecap:round; stroke-linejoin:round;fill-rule:evenodd;"
d="M 4.3865,14.8965
4.3865,13.0965
6.1865,13.0965
6.1865,14.8965
Z" /> 
<circle cx="7.8265" cy="13.9965" r="0.9000" /> 
</g>
<g style="fill:#000000; fill-opacity:1.0000; 
stroke:#000000; stroke-width:0.0212; stroke-opacity:1; 
stroke-linecap:round; stroke-linejoin:round;">
</g>
<g >
</g>
<g style="fill:#000000; fill-opacity:1.0000; 
stroke:#000000; stroke-width:0.0212; stroke-opacity:1; 
stroke-linecap:round; stroke-linejoin:round;">
</g>
<g style="fill:#000000; fill-opacity:1.0000; 
stroke:#000000; stroke-width:0.0000; stroke-opacity:1; 
stroke-linecap:round; stroke-linejoin:round;">
<circle cx="7.7265" cy="18.4965" r="1.0500" /> 
</g>
<g style="fill:#000000; fill-opacity:1.0000; 
stroke:#000000; stroke-width:0.0212; stroke-opacity:1; 
stroke-linecap:round; stroke-linejoin:round;">
</g>
<g >
</g>
<g >
</g>
<g style="fill:#000000; fill-opacity:1.0000; 
stroke:#000000; stroke-width:0.0212; stroke-opacity:1; 
stroke-linecap:round; stroke-linejoin:round;">
<g >
</g>
<g style="fill:#000000; fill-opacity:1.0000; 
stroke:#000000; stroke-width:0.0000; stroke-opacity:1; 
stroke-linecap:round; stroke-linejoin:round;">
<path style="fill:#000000; fill-opacity:1.0000; 
stroke:#000000; stroke-width:0.0000; stroke-opacity:1; 
stroke-linecap:round; stroke-linejoin:round;fill-rule:evenodd;"
d="M 10.3190,11.5040
10.3260,11.5210
10.3260,29.4720
10.3190,29.4890
10.3020,29.4960
1.3510,29.4960
1.3340,29.4890
1.3270,29.4720
1.3270,27.5237
5.9265,27.5237
5.9265,27.5237
6.7200,27.5237
6.6701,27.5477
6.5707,27.6400
6.5029,27.7575
6.4727,27.8897
6.4828,28.0250
6.5324,28.1513
6.6170,28.2573
6.7144,28.3237
5.9265,28.3237
5.9265,28.3237
5.9265,28.8685
5.9294,28.8936
5.9294,28.8936
5.9747,28.9962
6.0540,29.0755
6.1566,29.1208
6.1566,29.1208
6.1817,29.1237
6.9265,29.1237
6.9265,29.1237
7.7265,29.1237
7.7265,29.1237
8.4713,29.1237
8.4713,29.1237
8.4964,29.1208
8.4964,29.1208
8.5990,29.0755
8.6783,28.9962
8.7236,28.8936
8.7236,28.8936
8.7265,28.8685
8.7265,28.8685
8.7265,28.3237
8.7265,28.3237
7.7265,28.3237
7.7265,28.3237
7.7265,29.1237
6.9265,29.1237
6.9265,28.3737
6.9602,28.3737
7.0606,28.3586
7.1829,28.2997
7.2823,28.2075
7.3501,28.0900
7.3803,27.9577
7.3702,27.8224
7.3206,27.6962
7.2360,27.5901
7.1386,27.5237
7.7265,27.5237
7.7265,27.5237
8.7265,27.5237
8.7265,27.5237
8.7265,26.9789
8.7265,26.9789
8.7236,26.9538
8.7236,26.9538
8.6783,26.8512
8.5990,26.7719
8.4964,26.7266
8.4964,26.7266
8.4713,26.7237
7.7265,26.7237
7.7265,26.7237
7.7265,27.5237
7.1386,27.5237
7.1240,27.5137
6.9943,27.4737
6.9265,27.4737
6.9265,26.7237
6.9265,26.7237
6.1817,26.7237
6.1817,26.7237
6.1566,26.7266
6.1566,26.7266
6.0540,26.7719
5.9747,26.8512
5.9294,26.9538
5.9294,26.9538
5.9265,26.9789
5.9265,27.5237
1.3270,27.5237
1.3270,25.9131
5.6760,25.9131
5.6915,26.0305
5.6915,26.0305
5.7520,26.1765
5.7520,26.1766
5.8482,26.3020
5.9737,26.3982
5.9737,26.3983
6.1197,26.4588
6.1197,26.4588
6.1197,26.4588
6.2371,26.4742
7.6159,26.4742
7.7333,26.4588
7.8793,26.3982
8.0048,26.3020
8.1010,26.1766
8.1615,26.0305
8.1770,25.9131
8.1770,24.9344
8.1615,24.8170
8.1010,24.6709
8.0048,24.5454
7.8793,24.4492
7.8793,24.4492
7.7333,24.3887
7.7333,24.3887
7.7137,24.3861
7.6159,24.3732
7.6159,24.3732
6.2371,24.3732
6.1197,24.3887
6.1197,24.3887
5.9737,24.4492
5.9737,24.4492
5.8482,24.5454
5.8482,24.5454
5.7520,24.6709
5.7520,24.6709
5.6915,24.8169
5.6915,24.8169
5.6915,24.8170
5.6915,24.8170
5.6760,24.9344
5.6760,24.9344
5.6760,24.9344
5.6760,25.9131
1.3270,25.9131
1.3270,22.9237
5.6709,22.9237
5.6912,23.1296
5.7164,23.2127
5.7513,23.3277
5.8488,23.5102
5.8488,23.5102
5.8488,23.5102
5.9801,23.6701
5.9801,23.6701
5.9801,23.6701
5.9801,23.6701
5.9801,23.6701
6.1400,23.8014
6.1400,23.8014
6.3225,23.8989
6.5111,23.9561
6.5206,23.9590
6.6716,23.9739
6.6749,23.9742
6.6749,23.9742
7.1781,23.9742
7.1781,23.9742
7.2025,23.9718
7.3324,23.9590
7.3324,23.9590
7.3324,23.9590
7.5305,23.8989
7.7129,23.8014
7.8729,23.6701
8.0042,23.5102
8.1017,23.3277
8.1618,23.1296
8.1618,23.1296
8.1618,23.1296
8.1821,22.9237
8.1821,22.9237
8.1618,22.7178
8.1589,22.7083
8.1017,22.5198
8.0042,22.3373
7.8729,22.1773
7.8729,22.1773
7.8729,22.1773
7.7130,22.0460
7.7130,22.0460
7.7129,22.0460
7.5305,21.9485
7.4154,21.9136
7.3324,21.8884
7.1781,21.8732
7.1781,21.8732
6.6749,21.8732
6.6749,21.8732
6.5206,21.8884
6.4055,21.9233
6.3225,21.9485
6.3225,21.9485
6.3225,21.9485
6.1401,22.0460
6.1400,22.0460
5.9801,22.1773
5.9801,22.1773
5.8488,22.3373
5.8488,22.3373
5.8488,22.3373
5.7513,22.5198
5.7261,22.6028
5.6912,22.7178
5.6709,22.9237
5.6709,22.9237
1.3270,22.9237
1.3270,16.7760
1.3340,16.7590
1.3510,16.7520
6.5025,16.7520
6.5025,16.7520
6.5620,16.7402
6.5620,16.7402
6.5620,16.7402
6.5687,16.7374
6.5790,16.7331
6.6141,16.7128
6.6631,16.6490
6.6702,16.6320
6.6820,16.5725
6.6820,15.0820
7.3067,15.0820
7.4967,15.1556
7.7153,15.1965
7.9377,15.1965
8.1563,15.1556
8.3463,15.0820
7.8265,14.5622
7.3067,15.0820
6.6820,15.0820
6.6820,14.4922
6.6890,14.4753
6.7060,14.4682
6.7230,14.4753
6.7275,14.4815
6.7435,14.5138
7.2608,13.9965
7.2268,13.9625
7.3727,13.9625
7.3828,14.0978
7.4324,14.2240
7.5170,14.3301
7.6290,14.4065
7.7587,14.4465
7.8602,14.4465
7.9606,14.4314
8.0829,14.3725
8.1823,14.2802
8.2501,14.1628
8.2803,14.0305
8.2778,13.9965
8.3922,13.9965
8.9095,14.5138
8.9503,14.4318
9.0111,14.2179
9.0316,13.9965
9.0111,13.7751
8.9503,13.5612
8.9095,13.4792
8.3922,13.9965
8.2778,13.9965
8.2702,13.8952
8.2206,13.7690
8.1360,13.6629
8.0240,13.5865
7.8943,13.5465
7.7928,13.5465
7.6924,13.5616
7.5701,13.6205
7.4707,13.7128
7.4029,13.8302
7.3727,13.9625
7.2268,13.9625
6.7435,13.4792
6.7275,13.5115
6.7136,13.5235
6.6953,13.5222
6.6832,13.5084
6.6820,13.5008
6.6820,12.9110
7.3067,12.9110
7.8265,13.4308
8.3463,12.9110
8.1563,12.8374
7.9377,12.7965
7.7153,12.7965
7.4967,12.8374
7.3067,12.9110
6.6820,12.9110
6.6820,11.5210
6.6890,11.5040
6.7060,11.4970
10.3020,11.4970
Z" /> 
</g>
</g>
<g style="fill:#000000; fill-opacity:1.0000; 
stroke:#000000; stroke-width:0.0000; stroke-opacity:1; 
stroke-linecap:round; stroke-linejoin:round;">
<g >
<path style="fill:#000000; fill-opacity:1.0000; 
stroke:#000000; stroke-width:0.0000; stroke-opacity:1; 
stroke-linecap:round; stroke-linejoin:round;fill-rule:evenodd;"
d="M 6.5195,11.5040
6.5265,11.5210
6.5265,16.5725
6.5195,16.5895
6.5025,16.5965
4.0265,16.5965
1.3510,16.5965
1.3340,16.5895
1.3270,16.5725
1.3270,14.9162
4.1865,14.9162
4.1981,14.9745
4.1981,14.9745
4.2423,15.0407
4.2423,15.0407
4.3085,15.0849
4.3085,15.0849
4.3668,15.0965
4.3668,15.0965
4.8865,15.0965
4.8865,15.0965
5.6865,15.0965
5.6865,15.0965
6.2062,15.0965
6.2062,15.0965
6.2645,15.0849
6.2645,15.0849
6.3307,15.0407
6.3307,15.0407
6.3749,14.9745
6.3749,14.9745
6.3865,14.9162
6.3865,14.9162
6.3865,14.3965
6.3865,14.3965
5.6865,14.3965
5.6865,14.3965
5.6865,15.0965
4.8865,15.0965
4.8865,14.3965
4.8865,14.3965
4.1865,14.3965
4.1865,14.3965
4.1865,14.9162
1.3270,14.9162
1.3270,13.9625
4.8327,13.9625
4.8428,14.0978
4.8924,14.2240
4.9770,14.3301
5.0890,14.4065
5.2187,14.4465
5.3202,14.4465
5.4206,14.4314
5.5429,14.3725
5.6423,14.2802
5.7101,14.1628
5.7403,14.0305
5.7302,13.8952
5.6806,13.7690
5.5960,13.6629
5.4986,13.5965
5.6865,13.5965
5.6865,13.5965
6.3865,13.5965
6.3865,13.5965
6.3865,13.0768
6.3865,13.0768
6.3749,13.0185
6.3749,13.0185
6.3307,12.9523
6.3307,12.9523
6.2645,12.9081
6.2645,12.9081
6.2062,12.8965
5.6865,12.8965
5.6865,12.8965
5.6865,13.5965
5.4986,13.5965
5.4840,13.5865
5.3543,13.5465
5.2528,13.5465
5.1524,13.5616
5.0301,13.6205
4.9307,13.7128
4.8629,13.8302
4.8327,13.9625
1.3270,13.9625
1.3270,13.5965
4.1865,13.5965
4.1865,13.5965
4.8865,13.5965
4.8865,13.5965
4.8865,12.8965
4.8865,12.8965
4.3668,12.8965
4.3085,12.9081
4.3085,12.9081
4.2423,12.9523
4.2423,12.9523
4.1981,13.0185
4.1981,13.0185
4.1865,13.0768
4.1865,13.5965
1.3270,13.5965
1.3270,11.5210
1.3340,11.5040
1.3510,11.4970
6.5025,11.4970
Z" /> 
</g>
</g>
</g>
<g style="fill:#000000; fill-opacity:1.0000; 
stroke:#000000; stroke-width:0.0000; stroke-opacity:1; 
stroke-linecap:round; stroke-linejoin:round;">
</g>
<g style="fill:#000000; fill-opacity:0.0; 
stroke:#000000; stroke-width:0.1000; stroke-opacity:1; 
stroke-linecap:round; stroke-linejoin:round;">
<path style="fill:#000000; fill-opacity:0.0; 
stroke:#000000; stroke-width:0.1000; stroke-opacity:1; 
stroke-linecap:round; stroke-linejoin:round;fill:none"
d="M 1.3265,11.4965
10.3265,11.4965
10.3265,29.4965
1.3265,29.4965
Z" /> 
<g >
</g>
<g >
</g>
<g >
</g>
<g >
</g>
<g >
</g>
<g >
</g>
<g >
</g>
<g >
</g>
<g >
</g>
<g >
</g>
<g >
</g>
<g >
</g>
</g> 
</svg>
