<?xml version="1.0" standalone="no"?>
 <!DOCTYPE svg PUBLIC "-//W3C//DTD SVG 1.1//EN" 
 "http://www.w3.org/Graphics/SVG/1.1/DTD/svg11.dtd"> 
<svg
  xmlns:svg="http://www.w3.org/2000/svg"
  xmlns="http://www.w3.org/2000/svg"
  xmlns:xlink="http://www.w3.org/1999/xlink"
  version="1.1"
  width="10.3632mm" height="30.8864mm" viewBox="0.0000 0.0000 10.3632 30.8864">
<title>SVG Image created as Pedal_Proxy_Sensor_PCB-F_Cu.svg date 2024/06/08 06:15:15 </title>
  <desc>Image generated by PCBNEW </desc>
<g style="fill:#000000; fill-opacity:1.0000;stroke:#000000; stroke-opacity:1.0000;
stroke-linecap:round; stroke-linejoin:round;"
 transform="translate(0 0) scale(1 1)">
</g>
<g style="fill:#000000; fill-opacity:0.0; 
stroke:#000000; stroke-width:0.0000; stroke-opacity:1; 
stroke-linecap:round; stroke-linejoin:round;">
<g >
</g>
<g style="fill:#000000; fill-opacity:0.0; 
stroke:#000000; stroke-width:0.0000; stroke-opacity:1; 
stroke-linecap:round; stroke-linejoin:round;">
</g>
<g style="fill:#000000; fill-opacity:1.0000; 
stroke:#000000; stroke-width:0.0000; stroke-opacity:1; 
stroke-linecap:round; stroke-linejoin:round;">
<path style="fill:#000000; fill-opacity:1.0000; 
stroke:#000000; stroke-width:0.0000; stroke-opacity:1; 
stroke-linecap:round; stroke-linejoin:round;fill-rule:evenodd;"
d="M 4.2115,26.6865
4.2115,28.2565
3.5215,28.2565
3.5215,26.6865
Z" /> 
<path style="fill:#000000; fill-opacity:1.0000; 
stroke:#000000; stroke-width:0.0000; stroke-opacity:1; 
stroke-linecap:round; stroke-linejoin:round;fill-rule:evenodd;"
d="M 4.2115,22.7365
4.2115,24.3065
3.5215,24.3065
3.5215,22.7365
Z" /> 
<path style="fill:#000000; fill-opacity:1.0000; 
stroke:#000000; stroke-width:0.0000; stroke-opacity:1; 
stroke-linecap:round; stroke-linejoin:round;fill-rule:evenodd;"
d="M 2.4115,22.7365
2.4115,24.3065
1.7215,24.3065
1.7215,22.7365
Z" /> 
<path style="fill:#000000; fill-opacity:1.0000; 
stroke:#000000; stroke-width:0.0000; stroke-opacity:1; 
stroke-linecap:round; stroke-linejoin:round;fill-rule:evenodd;"
d="M 2.4115,26.6865
2.4115,28.2565
1.7215,28.2565
1.7215,26.6865
Z" /> 
</g>
<g >
</g>
<g style="fill:#000000; fill-opacity:1.0000; 
stroke:#000000; stroke-width:0.0000; stroke-opacity:1; 
stroke-linecap:round; stroke-linejoin:round;">
<path style="fill:#000000; fill-opacity:1.0000; 
stroke:#000000; stroke-width:0.0000; stroke-opacity:1; 
stroke-linecap:round; stroke-linejoin:round;fill-rule:evenodd;"
d="M 1.9265,20.5590
1.9446,20.4681
1.9961,20.3911
2.0731,20.3396
2.1640,20.3215
2.6640,20.3215
2.7549,20.3396
2.8319,20.3911
2.8834,20.4681
2.9015,20.5590
2.9015,21.0340
2.8834,21.1249
2.8319,21.2019
2.7549,21.2534
2.6640,21.2715
2.1640,21.2715
2.0731,21.2534
1.9961,21.2019
1.9446,21.1249
1.9265,21.0340
Z" /> 
<path style="fill:#000000; fill-opacity:1.0000; 
stroke:#000000; stroke-width:0.0000; stroke-opacity:1; 
stroke-linecap:round; stroke-linejoin:round;fill-rule:evenodd;"
d="M 3.7515,20.5590
3.7696,20.4681
3.8211,20.3911
3.8981,20.3396
3.9890,20.3215
4.4890,20.3215
4.5799,20.3396
4.6569,20.3911
4.7084,20.4681
4.7265,20.5590
4.7265,21.0340
4.7084,21.1249
4.6569,21.2019
4.5799,21.2534
4.4890,21.2715
3.9890,21.2715
3.8981,21.2534
3.8211,21.2019
3.7696,21.1249
3.7515,21.0340
Z" /> 
</g>
<g >
</g>
<g style="fill:#000000; fill-opacity:1.0000; 
stroke:#000000; stroke-width:0.0000; stroke-opacity:1; 
stroke-linecap:round; stroke-linejoin:round;">
<path style="fill:#000000; fill-opacity:1.0000; 
stroke:#000000; stroke-width:0.0000; stroke-opacity:1; 
stroke-linecap:round; stroke-linejoin:round;fill-rule:evenodd;"
d="M 5.2890,24.9965
5.1981,24.9784
5.1211,24.9269
5.0696,24.8499
5.0515,24.7590
5.0515,24.2590
5.0696,24.1681
5.1211,24.0911
5.1981,24.0396
5.2890,24.0215
5.7640,24.0215
5.8549,24.0396
5.9319,24.0911
5.9834,24.1681
6.0015,24.2590
6.0015,24.7590
5.9834,24.8499
5.9319,24.9269
5.8549,24.9784
5.7640,24.9965
Z" /> 
<path style="fill:#000000; fill-opacity:1.0000; 
stroke:#000000; stroke-width:0.0000; stroke-opacity:1; 
stroke-linecap:round; stroke-linejoin:round;fill-rule:evenodd;"
d="M 5.2890,23.1715
5.1981,23.1534
5.1211,23.1019
5.0696,23.0249
5.0515,22.9340
5.0515,22.4340
5.0696,22.3431
5.1211,22.2661
5.1981,22.2146
5.2890,22.1965
5.7640,22.1965
5.8549,22.2146
5.9319,22.2661
5.9834,22.3431
6.0015,22.4340
6.0015,22.9340
5.9834,23.0249
5.9319,23.1019
5.8549,23.1534
5.7640,23.1715
Z" /> 
</g>
<g >
</g>
<g style="fill:#000000; fill-opacity:1.0000; 
stroke:#000000; stroke-width:0.0000; stroke-opacity:1; 
stroke-linecap:round; stroke-linejoin:round;">
<path style="fill:#000000; fill-opacity:1.0000; 
stroke:#000000; stroke-width:0.0000; stroke-opacity:1; 
stroke-linecap:round; stroke-linejoin:round;fill-rule:evenodd;"
d="M 5.7640,25.4665
5.8549,25.4846
5.9319,25.5361
5.9834,25.6131
6.0015,25.7040
6.0015,26.2040
5.9834,26.2949
5.9319,26.3719
5.8549,26.4234
5.7640,26.4415
5.2890,26.4415
5.1981,26.4234
5.1211,26.3719
5.0696,26.2949
5.0515,26.2040
5.0515,25.7040
5.0696,25.6131
5.1211,25.5361
5.1981,25.4846
5.2890,25.4665
Z" /> 
<path style="fill:#000000; fill-opacity:1.0000; 
stroke:#000000; stroke-width:0.0000; stroke-opacity:1; 
stroke-linecap:round; stroke-linejoin:round;fill-rule:evenodd;"
d="M 5.7640,27.2915
5.8549,27.3096
5.9319,27.3611
5.9834,27.4381
6.0015,27.5290
6.0015,28.0290
5.9834,28.1199
5.9319,28.1969
5.8549,28.2484
5.7640,28.2665
5.2890,28.2665
5.1981,28.2484
5.1211,28.1969
5.0696,28.1199
5.0515,28.0290
5.0515,27.5290
5.0696,27.4381
5.1211,27.3611
5.1981,27.3096
5.2890,27.2915
Z" /> 
</g>
<g >
</g>
<g style="fill:#000000; fill-opacity:1.0000; 
stroke:#000000; stroke-width:0.0000; stroke-opacity:1; 
stroke-linecap:round; stroke-linejoin:round;">
<path style="fill:#000000; fill-opacity:1.0000; 
stroke:#000000; stroke-width:0.0000; stroke-opacity:1; 
stroke-linecap:round; stroke-linejoin:round;fill-rule:evenodd;"
d="M 2.8265,19.8465
2.0265,19.8465
2.0265,17.9465
2.8265,17.9465
Z" /> 
<path style="fill:#000000; fill-opacity:1.0000; 
stroke:#000000; stroke-width:0.0000; stroke-opacity:1; 
stroke-linecap:round; stroke-linejoin:round;fill-rule:evenodd;"
d="M 4.7265,19.8465
3.9265,19.8465
3.9265,17.9465
4.7265,17.9465
Z" /> 
<path style="fill:#000000; fill-opacity:1.0000; 
stroke:#000000; stroke-width:0.0000; stroke-opacity:1; 
stroke-linecap:round; stroke-linejoin:round;fill-rule:evenodd;"
d="M 3.7765,16.8465
2.9765,16.8465
2.9765,14.9465
3.7765,14.9465
Z" /> 
</g>
<g >
</g>
<g style="fill:#000000; fill-opacity:1.0000; 
stroke:#000000; stroke-width:0.0000; stroke-opacity:1; 
stroke-linecap:round; stroke-linejoin:round;">
<path style="fill:#000000; fill-opacity:1.0000; 
stroke:#000000; stroke-width:0.0000; stroke-opacity:1; 
stroke-linecap:round; stroke-linejoin:round;fill-rule:evenodd;"
d="M 1.6765,16.3965
1.5808,16.3775
1.4997,16.3233
1.4455,16.2422
1.4265,16.1465
1.4265,15.4465
1.4455,15.3508
1.4997,15.2697
1.5808,15.2155
1.6765,15.1965
2.5765,15.1965
2.6722,15.2155
2.7533,15.2697
2.8075,15.3508
2.8265,15.4465
2.8265,16.1465
2.8075,16.2422
2.7533,16.3233
2.6722,16.3775
2.5765,16.3965
Z" /> 
<path style="fill:#000000; fill-opacity:1.0000; 
stroke:#000000; stroke-width:0.0000; stroke-opacity:1; 
stroke-linecap:round; stroke-linejoin:round;fill-rule:evenodd;"
d="M 1.6765,14.3965
1.5808,14.3775
1.4997,14.3233
1.4455,14.2422
1.4265,14.1465
1.4265,13.4465
1.4455,13.3508
1.4997,13.2697
1.5808,13.2155
1.6765,13.1965
2.5765,13.1965
2.6722,13.2155
2.7533,13.2697
2.8075,13.3508
2.8265,13.4465
2.8265,14.1465
2.8075,14.2422
2.7533,14.3233
2.6722,14.3775
2.5765,14.3965
Z" /> 
</g>
<g >
</g>
<g style="fill:#000000; fill-opacity:1.0000; 
stroke:#000000; stroke-width:0.0000; stroke-opacity:1; 
stroke-linecap:round; stroke-linejoin:round;">
<path style="fill:#000000; fill-opacity:1.0000; 
stroke:#000000; stroke-width:0.0000; stroke-opacity:1; 
stroke-linecap:round; stroke-linejoin:round;fill-rule:evenodd;"
d="M 4.9265,11.7465
4.9455,11.6508
4.9997,11.5697
5.0808,11.5155
5.1765,11.4965
5.8265,11.4965
5.9222,11.5155
6.0033,11.5697
6.0575,11.6508
6.0765,11.7465
6.0765,12.6465
6.0575,12.7422
6.0033,12.8233
5.9222,12.8775
5.8265,12.8965
5.1765,12.8965
5.0808,12.8775
4.9997,12.8233
4.9455,12.7422
4.9265,12.6465
Z" /> 
<path style="fill:#000000; fill-opacity:1.0000; 
stroke:#000000; stroke-width:0.0000; stroke-opacity:1; 
stroke-linecap:round; stroke-linejoin:round;fill-rule:evenodd;"
d="M 6.9765,11.7465
6.9955,11.6508
7.0497,11.5697
7.1308,11.5155
7.2265,11.4965
7.8765,11.4965
7.9722,11.5155
8.0533,11.5697
8.1075,11.6508
8.1265,11.7465
8.1265,12.6465
8.1075,12.7422
8.0533,12.8233
7.9722,12.8775
7.8765,12.8965
7.2265,12.8965
7.1308,12.8775
7.0497,12.8233
6.9955,12.7422
6.9765,12.6465
Z" /> 
</g>
<g >
</g>
<g style="fill:#000000; fill-opacity:1.0000; 
stroke:#000000; stroke-width:0.0000; stroke-opacity:1; 
stroke-linecap:round; stroke-linejoin:round;">
<path style="fill:#000000; fill-opacity:1.0000; 
stroke:#000000; stroke-width:0.0000; stroke-opacity:1; 
stroke-linecap:round; stroke-linejoin:round;fill-rule:evenodd;"
d="M 8.4265,28.8237
6.2265,28.8237
6.2265,27.0237
8.4265,27.0237
Z" /> 
<path style="fill:#000000; fill-opacity:1.0000; 
stroke:#000000; stroke-width:0.0000; stroke-opacity:1; 
stroke-linecap:round; stroke-linejoin:round;fill-rule:evenodd;"
d="M 6.2765,26.3237
6.1928,26.3159
6.0662,26.2716
5.9583,26.1919
5.8786,26.0840
5.8343,25.9574
5.8265,25.8737
5.8265,24.9737
5.8343,24.8901
5.8786,24.7634
5.9583,24.6555
6.0662,24.5759
6.1928,24.5316
6.2765,24.5237
7.5765,24.5237
7.6602,24.5316
7.7868,24.5759
7.8947,24.6555
7.9744,24.7634
8.0187,24.8901
8.0265,24.9737
8.0265,25.8737
8.0187,25.9574
7.9744,26.0840
7.8947,26.1919
7.7868,26.2716
7.6602,26.3159
7.5765,26.3237
Z" /> 
</g>
<g style="fill:#000000; fill-opacity:1.0000; 
stroke:#000000; stroke-width:1.8000; stroke-opacity:1; 
stroke-linecap:round; stroke-linejoin:round;">
</g>
<g style="fill:#000000; fill-opacity:0.0; 
stroke:#000000; stroke-width:1.8000; stroke-opacity:1; 
stroke-linecap:round; stroke-linejoin:round;">
<path d="M6.7265 22.9237
L7.1265 22.9237
" />
</g>
<g >
</g>
<g style="fill:#000000; fill-opacity:0.0; 
stroke:#000000; stroke-width:1.8000; stroke-opacity:1; 
stroke-linecap:round; stroke-linejoin:round;">
</g>
<g style="fill:#000000; fill-opacity:0.0; 
stroke:#000000; stroke-width:0.0000; stroke-opacity:1; 
stroke-linecap:round; stroke-linejoin:round;">
</g>
<g style="fill:#000000; fill-opacity:1.0000; 
stroke:#000000; stroke-width:0.0000; stroke-opacity:1; 
stroke-linecap:round; stroke-linejoin:round;">
<path style="fill:#000000; fill-opacity:1.0000; 
stroke:#000000; stroke-width:0.0000; stroke-opacity:1; 
stroke-linecap:round; stroke-linejoin:round;fill-rule:evenodd;"
d="M 4.3865,14.8965
4.3865,13.0965
6.1865,13.0965
6.1865,14.8965
Z" /> 
<circle cx="7.8265" cy="13.9965" r="0.9000" /> 
</g>
<g style="fill:#000000; fill-opacity:1.0000; 
stroke:#000000; stroke-width:0.0212; stroke-opacity:1; 
stroke-linecap:round; stroke-linejoin:round;">
</g>
<g >
</g>
<g style="fill:#000000; fill-opacity:1.0000; 
stroke:#000000; stroke-width:0.0212; stroke-opacity:1; 
stroke-linecap:round; stroke-linejoin:round;">
</g>
<g style="fill:#000000; fill-opacity:1.0000; 
stroke:#000000; stroke-width:0.0000; stroke-opacity:1; 
stroke-linecap:round; stroke-linejoin:round;">
<circle cx="7.7265" cy="18.4965" r="1.0500" /> 
</g>
<g style="fill:#000000; fill-opacity:1.0000; 
stroke:#000000; stroke-width:0.0212; stroke-opacity:1; 
stroke-linecap:round; stroke-linejoin:round;">
</g>
<g >
</g>
<g style="fill:#000000; fill-opacity:1.0000; 
stroke:#000000; stroke-width:0.0212; stroke-opacity:1; 
stroke-linecap:round; stroke-linejoin:round;">
</g>
<g style="fill:#000000; fill-opacity:1.0000; 
stroke:#000000; stroke-width:0.7000; stroke-opacity:1; 
stroke-linecap:round; stroke-linejoin:round;">
</g>
<g style="fill:#000000; fill-opacity:0.0; 
stroke:#000000; stroke-width:0.7000; stroke-opacity:1; 
stroke-linecap:round; stroke-linejoin:round;">
<path d="M6.9265 25.4237
L6.4412 25.4237
" />
<path d="M6.4412 25.4237
L5.5265 24.5090
" />
<path d="M8.6265 22.1965
L5.3265 18.8965
" />
<path d="M8.6265 24.5101
L8.6265 22.1965
" />
<path d="M7.7129 25.4237
L8.6265 24.5101
" />
<path d="M6.9265 25.4237
L6.0568 25.4237
" />
<path d="M6.0568 25.4237
L5.5265 25.9540
" />
<path d="M5.3265 18.8965
L4.3265 18.8965
" />
<path d="M6.9265 25.4237
L7.7129 25.4237
" />
<path d="M7.5515 12.1965
L7.5515 13.7215
" />
<path d="M7.5515 13.7215
L7.8265 13.9965
" />
<path d="M4.1740 27.7790
L3.8665 27.4715
" />
<path d="M5.5265 27.7790
L4.1740 27.7790
" />
<path d="M3.2765 15.7965
L3.3765 15.8965
" />
<path d="M2.1265 15.7965
L3.2765 15.7965
" />
</g>
<g style="fill:#000000; fill-opacity:0.0; 
stroke:#000000; stroke-width:0.5000; stroke-opacity:1; 
stroke-linecap:round; stroke-linejoin:round;">
<path d="M5.5265 22.6840
L6.6868 22.6840
" />
<path d="M2.0665 22.5565
L2.3327 22.2903
" />
<path d="M2.0665 23.5215
L2.0665 22.5565
" />
<path d="M6.6868 22.6840
L6.9265 22.9237
" />
<path d="M2.3327 22.2903
L5.1327 22.2903
" />
<path d="M4.2390 21.3965
L5.5265 22.6840
" />
<path d="M4.2390 20.7965
L4.2390 21.3965
" />
<path d="M5.1327 22.2903
L5.5265 22.6840
" />
<path d="M2.4265 20.7840
L2.4140 20.7965
" />
<path d="M2.4265 18.8965
L2.4265 20.7840
" />
</g>
<g style="fill:#000000; fill-opacity:0.0; 
stroke:#000000; stroke-width:0.7000; stroke-opacity:1; 
stroke-linecap:round; stroke-linejoin:round;">
<path d="M5.5015 13.7815
L5.2865 13.9965
" />
<path d="M5.0865 13.7965
L5.2865 13.9965
" />
<path d="M5.5015 12.1965
L5.5015 13.7815
" />
<path d="M2.1265 13.7965
L5.0865 13.7965
" />
</g>
<g >
</g>
<g style="fill:#000000; fill-opacity:0.0; 
stroke:#000000; stroke-width:0.7000; stroke-opacity:1; 
stroke-linecap:round; stroke-linejoin:round;">
<g >
</g>
<g style="fill:#000000; fill-opacity:1.0000; 
stroke:#000000; stroke-width:0.0000; stroke-opacity:1; 
stroke-linecap:round; stroke-linejoin:round;">
<path style="fill:#000000; fill-opacity:1.0000; 
stroke:#000000; stroke-width:0.0000; stroke-opacity:1; 
stroke-linecap:round; stroke-linejoin:round;fill-rule:evenodd;"
d="M 10.3190,11.5040
10.3260,11.5210
10.3260,29.4720
10.3190,29.4890
10.3020,29.4960
1.3510,29.4960
1.3340,29.4890
1.3270,29.4720
1.3270,28.3013
1.4215,28.3013
1.4244,28.3264
1.4244,28.3264
1.4697,28.4290
1.5490,28.5083
1.6516,28.5536
1.6516,28.5536
1.6767,28.5565
1.7215,28.5565
1.7215,28.5565
2.4115,28.5565
2.4115,28.5565
2.4563,28.5565
2.4563,28.5565
2.4814,28.5536
2.4814,28.5536
2.5840,28.5083
2.6633,28.4290
2.7086,28.3264
2.7086,28.3264
2.7115,28.3013
2.7115,28.3013
2.7115,27.8165
2.7115,27.8165
2.4115,27.8165
2.4115,27.8165
2.4115,28.5565
1.7215,28.5565
1.7215,27.8165
1.7215,27.8165
1.4215,27.8165
1.4215,27.8165
1.4215,28.3013
1.3270,28.3013
1.3270,27.4354
3.3621,27.4354
3.3710,27.5589
3.3710,27.5597
3.3710,28.2713
3.3797,28.3152
3.4087,28.3586
3.4130,28.3650
3.4260,28.3737
3.4628,28.3983
3.5055,28.4068
3.5067,28.4070
3.5067,28.4070
4.2263,28.4070
4.2263,28.4070
4.2702,28.3983
4.3200,28.3650
4.3533,28.3152
4.3565,28.2988
4.3667,28.2835
4.3801,28.2795
4.9808,28.2795
4.9978,28.2865
5.0581,28.3468
5.0581,28.3468
5.1676,28.4026
5.1676,28.4026
5.1676,28.4026
5.2585,28.4170
5.7945,28.4170
5.8854,28.4026
5.8916,28.3994
5.9099,28.3980
5.9239,28.4099
5.9265,28.4208
5.9265,28.8685
5.9265,28.8685
5.9294,28.8936
5.9294,28.8936
5.9747,28.9962
6.0540,29.0755
6.1566,29.1208
6.1566,29.1208
6.1817,29.1237
6.9265,29.1237
6.9265,29.1237
7.7265,29.1237
7.7265,29.1237
8.4713,29.1237
8.4713,29.1237
8.4964,29.1208
8.4964,29.1208
8.5990,29.0755
8.6783,28.9962
8.7236,28.8936
8.7236,28.8936
8.7265,28.8685
8.7265,28.8685
8.7265,28.3237
8.7265,28.3237
7.7265,28.3237
7.7265,28.3237
7.7265,29.1237
6.9265,29.1237
6.9265,28.3737
6.9602,28.3737
7.0606,28.3586
7.1829,28.2997
7.2823,28.2075
7.3501,28.0900
7.3803,27.9577
7.3702,27.8224
7.3206,27.6962
7.2360,27.5901
7.1386,27.5237
7.7265,27.5237
7.7265,27.5237
8.7265,27.5237
8.7265,27.5237
8.7265,26.9789
8.7265,26.9789
8.7236,26.9538
8.7236,26.9538
8.6783,26.8512
8.5990,26.7719
8.4964,26.7266
8.4964,26.7266
8.4713,26.7237
7.7265,26.7237
7.7265,26.7237
7.7265,27.5237
7.1386,27.5237
7.1240,27.5137
6.9943,27.4737
6.9265,27.4737
6.9265,26.7237
6.9265,26.7237
6.1817,26.7237
6.1817,26.7237
6.1566,26.7266
6.1566,26.7266
6.0540,26.7719
5.9747,26.8512
5.9294,26.9538
5.9294,26.9538
5.9265,26.9789
5.9265,27.1372
5.9195,27.1541
5.9025,27.1612
5.8916,27.1586
5.8854,27.1554
5.8854,27.1554
5.8854,27.1554
5.7945,27.1410
5.7945,27.1410
5.2585,27.1410
5.1676,27.1554
5.0581,27.2112
4.9978,27.2715
4.9808,27.2785
4.3913,27.2785
4.3743,27.2715
4.3690,27.2662
4.3620,27.2492
4.3620,26.6717
4.3620,26.6717
4.3533,26.6278
4.3200,26.5780
4.3200,26.5780
4.3194,26.5776
4.2702,26.5447
4.2263,26.5360
4.2263,26.5360
3.5067,26.5360
3.5067,26.5360
3.4628,26.5447
3.4130,26.5780
3.4130,26.5780
3.3797,26.6278
3.3710,26.6717
3.3710,27.3921
3.3705,27.3972
3.3621,27.4354
1.3270,27.4354
1.3270,27.1265
1.4215,27.1265
1.4215,27.1265
1.7215,27.1265
1.7215,27.1265
2.4115,27.1265
2.4115,27.1265
2.7115,27.1265
2.7115,27.1265
2.7115,26.6417
2.7115,26.6417
2.7086,26.6166
2.7086,26.6166
2.6633,26.5140
2.5840,26.4347
2.4814,26.3894
2.4814,26.3894
2.4563,26.3865
2.4115,26.3865
2.4115,26.3865
2.4115,27.1265
1.7215,27.1265
1.7215,26.3865
1.7215,26.3865
1.6767,26.3865
1.6767,26.3865
1.6516,26.3894
1.6516,26.3894
1.5490,26.4347
1.4697,26.5140
1.4244,26.6166
1.4244,26.6166
1.4215,26.6417
1.4215,27.1265
1.3270,27.1265
1.3270,24.3213
1.5710,24.3213
1.5797,24.3652
1.6128,24.4148
1.6130,24.4150
1.6297,24.4261
1.6628,24.4483
1.6902,24.4537
1.7067,24.4570
1.7067,24.4570
2.4263,24.4570
2.4263,24.4570
2.4702,24.4483
2.5200,24.4150
2.5533,24.3652
2.5560,24.3513
3.2215,24.3513
3.2244,24.3764
3.2244,24.3764
3.2697,24.4790
3.3490,24.5583
3.4516,24.6036
3.4516,24.6036
3.4767,24.6065
3.5215,24.6065
3.5215,24.6065
4.2115,24.6065
4.2115,24.6065
4.2563,24.6065
4.2563,24.6065
4.2814,24.6036
4.2814,24.6036
4.3840,24.5583
4.4633,24.4790
4.5086,24.3764
4.5086,24.3764
4.5115,24.3513
4.5115,24.3513
4.5115,23.8665
4.5115,23.8665
4.2115,23.8665
4.2115,23.8665
4.2115,24.6065
3.5215,24.6065
3.5215,23.8665
3.5215,23.8665
3.2215,23.8665
3.2215,23.8665
3.2215,24.3513
2.5560,24.3513
2.5620,24.3213
2.5620,22.7217
2.5616,22.7194
2.5651,22.7014
2.5804,22.6912
2.5851,22.6907
3.1975,22.6907
3.2145,22.6978
3.2215,22.7147
3.2215,23.1765
3.2215,23.1765
4.5115,23.1765
4.5115,23.1765
4.5115,22.7147
4.5185,22.6978
4.5355,22.6907
4.8770,22.6907
4.8940,22.6978
4.9010,22.7147
4.9010,22.9645
4.9154,23.0554
4.9712,23.1649
4.9712,23.1649
4.9712,23.1649
5.0581,23.2518
5.0581,23.2518
5.0581,23.2518
5.1676,23.3076
5.1676,23.3076
5.1676,23.3076
5.2585,23.3220
5.7339,23.3220
5.7508,23.3290
5.7550,23.3347
5.7669,23.3569
5.8488,23.5102
5.8488,23.5102
5.8488,23.5102
5.9801,23.6701
5.9801,23.6701
5.9801,23.6701
5.9801,23.6701
5.9801,23.6701
6.1400,23.8014
6.1400,23.8014
6.3225,23.8989
6.5111,23.9561
6.5206,23.9590
6.6716,23.9739
6.6749,23.9742
6.6749,23.9742
7.1781,23.9742
7.1781,23.9742
7.2025,23.9718
7.3324,23.9590
7.3324,23.9590
7.3324,23.9590
7.5305,23.8989
7.7129,23.8014
7.8729,23.6701
8.0042,23.5102
8.0808,23.3668
8.0950,23.3551
8.1133,23.3569
8.1250,23.3711
8.1260,23.3781
8.1260,24.2928
8.1190,24.3098
7.9510,24.4778
7.9340,24.4849
7.9194,24.4799
7.8793,24.4492
7.8793,24.4492
7.8793,24.4492
7.8793,24.4492
7.8793,24.4492
7.7333,24.3887
7.7333,24.3887
7.7137,24.3861
7.6159,24.3732
7.6159,24.3732
6.2371,24.3732
6.1791,24.3809
6.1614,24.3761
6.1522,24.3602
6.1520,24.3571
6.1520,24.2285
6.1520,24.2285
6.1376,24.1376
6.1376,24.1376
6.1376,24.1376
6.0818,24.0281
6.0818,24.0281
6.0818,24.0281
5.9949,23.9412
5.9949,23.9412
5.9949,23.9412
5.8854,23.8854
5.8490,23.8796
5.7945,23.8710
5.7945,23.8710
5.2585,23.8710
5.1676,23.8854
5.0581,23.9412
4.9712,24.0281
4.9154,24.1376
4.9010,24.2285
4.9010,24.7895
4.9154,24.8804
4.9712,24.9899
4.9712,24.9899
4.9712,24.9899
5.0581,25.0768
5.0581,25.0768
5.0581,25.0768
5.1676,25.1326
5.1676,25.1326
5.1676,25.1326
5.2585,25.1470
5.4467,25.1470
5.4637,25.1540
5.4637,25.1540
5.5242,25.2145
5.5312,25.2315
5.5242,25.2485
5.4637,25.3090
5.4467,25.3160
5.2585,25.3160
5.1676,25.3304
5.0581,25.3862
4.9712,25.4731
4.9154,25.5826
4.9010,25.6735
4.9010,26.2345
4.9154,26.3254
4.9712,26.4349
4.9712,26.4349
4.9712,26.4349
5.0581,26.5218
5.0581,26.5218
5.0581,26.5218
5.1676,26.5776
5.1676,26.5776
5.1676,26.5776
5.2585,26.5920
5.7945,26.5920
5.8854,26.5776
5.9949,26.5218
6.0647,26.4520
6.0817,26.4450
6.0909,26.4468
6.1197,26.4588
6.1197,26.4588
6.1197,26.4588
6.2371,26.4742
7.6159,26.4742
7.7333,26.4588
7.8793,26.3982
8.0048,26.3020
8.1010,26.1766
8.1615,26.0305
8.1770,25.9131
8.1770,25.6774
8.1840,25.6604
8.9405,24.9039
8.9445,24.9007
8.9465,24.8994
8.9576,24.8922
8.9928,24.8517
8.9933,24.8511
9.0057,24.8387
9.0162,24.8247
9.0167,24.8240
9.0519,24.7835
9.0583,24.7693
9.0610,24.7649
9.0703,24.7524
9.0891,24.7022
9.0894,24.7014
9.1117,24.6526
9.1139,24.6371
9.1151,24.6322
9.1206,24.6176
9.1244,24.5641
9.1245,24.5633
9.1270,24.5459
9.1270,24.5459
9.1270,24.5284
9.1270,24.5275
9.1295,24.4927
9.1309,24.4740
9.1275,24.4588
9.1270,24.4537
9.1270,22.2529
9.1275,22.2478
9.1309,22.2326
9.1309,22.2326
9.1286,22.2011
9.1270,22.1790
9.1270,22.1782
9.1270,22.1607
9.1270,22.1607
9.1245,22.1434
9.1244,22.1425
9.1225,22.1162
9.1206,22.0890
9.1206,22.0890
9.1206,22.0890
9.1151,22.0744
9.1139,22.0695
9.1117,22.0540
9.0894,22.0052
9.0890,22.0044
9.0817,21.9848
9.0703,21.9542
9.0661,21.9486
9.0610,21.9417
9.0583,21.9373
9.0545,21.9290
9.0519,21.9231
9.0315,21.8996
9.0167,21.8826
9.0162,21.8819
9.0057,21.8679
9.0057,21.8679
8.9933,21.8555
8.9928,21.8549
8.9576,21.8144
8.9445,21.8059
8.9405,21.8027
5.7203,18.5825
5.7171,18.5785
5.7086,18.5654
5.6681,18.5302
5.6675,18.5297
5.6551,18.5173
5.6551,18.5173
5.6551,18.5173
5.6411,18.5068
5.6404,18.5063
5.5999,18.4711
5.5999,18.4711
5.5857,18.4647
5.5813,18.4620
5.5688,18.4527
5.5185,18.4339
5.5178,18.4336
5.4690,18.4113
5.4690,18.4113
5.4535,18.4091
5.4486,18.4078
5.4340,18.4024
5.3805,18.3986
5.3796,18.3985
5.3623,18.3960
5.3623,18.3960
5.3448,18.3960
5.3440,18.3960
5.2904,18.3921
5.2904,18.3921
5.2752,18.3955
5.2701,18.3960
4.9010,18.3960
4.8840,18.3890
4.8770,18.3720
4.8770,17.9317
4.8770,17.9317
4.8683,17.8878
4.8350,17.8380
4.8350,17.8380
4.8348,17.8378
4.7852,17.8047
4.7413,17.7960
4.7413,17.7960
3.9117,17.7960
3.9117,17.7960
3.8678,17.8047
3.8180,17.8380
3.8180,17.8380
3.7847,17.8878
3.7760,17.9317
3.7760,19.8613
3.7847,19.9052
3.8178,19.9548
3.8180,19.9550
3.8347,19.9661
3.8678,19.9883
3.9067,19.9960
3.9117,19.9970
3.9117,19.9970
4.7413,19.9970
4.7413,19.9970
4.7852,19.9883
4.8350,19.9550
4.8683,19.9052
4.8770,19.8613
4.8770,19.4210
4.8840,19.4040
4.9010,19.3970
5.1092,19.3970
5.1262,19.4040
7.7173,21.9951
7.7243,22.0121
7.7173,22.0290
7.7003,22.0361
7.6890,22.0332
7.5305,21.9485
7.4307,21.9182
7.3324,21.8884
7.1781,21.8732
7.1781,21.8732
6.6749,21.8732
6.6749,21.8732
6.5206,21.8884
6.4223,21.9182
6.3225,21.9485
6.3225,21.9485
6.3225,21.9485
6.2547,21.9848
6.1533,22.0390
6.1401,22.0460
6.1400,22.0460
6.0386,22.1293
6.0210,22.1346
6.0064,22.1277
5.9949,22.1162
5.9949,22.1162
5.9949,22.1162
5.8854,22.0604
5.8453,22.0540
5.7945,22.0460
5.7945,22.0460
5.4648,22.0460
5.4479,22.0390
4.7573,21.3484
4.7502,21.3314
4.7573,21.3144
4.8068,21.2649
4.8626,21.1554
4.8770,21.0645
4.8770,20.5285
4.8626,20.4376
4.8626,20.4376
4.8626,20.4376
4.8068,20.3281
4.8068,20.3281
4.8068,20.3281
4.7199,20.2412
4.7199,20.2412
4.7199,20.2412
4.6104,20.1854
4.5740,20.1796
4.5195,20.1710
4.5195,20.1710
3.9585,20.1710
3.8676,20.1854
3.7581,20.2412
3.6712,20.3281
3.6154,20.4376
3.6010,20.5285
3.6010,21.0645
3.6154,21.1554
3.6712,21.2649
3.6712,21.2649
3.6712,21.2649
3.7581,21.3518
3.7581,21.3518
3.7581,21.3518
3.8254,21.3861
3.8373,21.4001
3.8385,21.4075
3.8385,21.4599
3.8478,21.4885
3.8487,21.4921
3.8534,21.5218
3.8534,21.5218
3.8670,21.5486
3.8684,21.5520
3.8777,21.5806
3.8954,21.6049
3.8973,21.6081
3.9109,21.6348
3.9110,21.6348
3.9329,21.6568
3.9329,21.6568
3.9335,21.6574
3.9335,21.6574
4.0788,21.8027
4.1249,21.8488
4.1319,21.8657
4.1249,21.8827
4.1079,21.8897
2.3008,21.8897
2.3007,21.8898
2.2693,21.8898
2.2408,21.8990
2.2371,21.8999
2.2075,21.9046
2.2074,21.9046
2.1807,21.9182
2.1772,21.9197
2.1487,21.9290
2.1244,21.9466
2.1212,21.9486
2.0944,21.9622
2.0944,21.9622
2.0718,21.9848
2.0718,21.9848
1.7610,22.2956
1.7384,22.3182
1.7248,22.3449
1.7229,22.3481
1.7052,22.3724
1.7052,22.3724
1.6959,22.4010
1.6945,22.4044
1.6809,22.4312
1.6809,22.4312
1.6762,22.4608
1.6753,22.4645
1.6660,22.4931
1.6660,22.5798
1.6590,22.5967
1.6553,22.5997
1.6130,22.6280
1.6130,22.6280
1.5797,22.6778
1.5710,22.7217
1.5710,24.3213
1.3270,24.3213
1.3270,21.0645
1.7760,21.0645
1.7904,21.1554
1.8462,21.2649
1.8462,21.2649
1.8462,21.2649
1.9331,21.3518
1.9331,21.3518
1.9331,21.3518
2.0426,21.4076
2.0426,21.4076
2.0426,21.4076
2.1335,21.4220
2.6945,21.4220
2.7854,21.4076
2.8949,21.3518
2.9818,21.2649
3.0376,21.1554
3.0520,21.0645
3.0520,20.5285
3.0376,20.4376
3.0376,20.4376
3.0376,20.4376
2.9818,20.3281
2.9818,20.3281
2.9818,20.3281
2.8949,20.2412
2.8949,20.2412
2.8949,20.2412
2.8401,20.2133
2.8282,20.1993
2.8270,20.1919
2.8270,20.0195
2.8340,20.0026
2.8463,19.9960
2.8852,19.9883
2.9350,19.9550
2.9683,19.9052
2.9770,19.8613
2.9770,17.9317
2.9683,17.8878
2.9683,17.8878
2.9350,17.8380
2.9350,17.8380
2.9348,17.8378
2.8852,17.8047
2.8413,17.7960
2.8413,17.7960
2.0117,17.7960
2.0117,17.7960
1.9678,17.8047
1.9180,17.8380
1.9180,17.8380
1.8847,17.8878
1.8760,17.9317
1.8760,19.8613
1.8847,19.9052
1.9178,19.9548
1.9180,19.9550
1.9347,19.9661
1.9678,19.9883
1.9756,19.9898
2.0067,19.9960
2.0220,20.0062
2.0260,20.0195
2.0260,20.1791
2.0190,20.1961
2.0129,20.2005
1.9331,20.2412
1.8462,20.3281
1.7904,20.4376
1.7760,20.5285
1.7760,21.0645
1.3270,21.0645
1.3270,16.7760
1.3340,16.7590
1.3510,16.7520
2.8020,16.7520
2.8190,16.7590
2.8260,16.7760
2.8260,16.8613
2.8347,16.9052
2.8678,16.9548
2.8680,16.9550
2.8847,16.9661
2.9178,16.9883
2.9605,16.9968
2.9617,16.9970
2.9617,16.9970
3.7913,16.9970
3.7913,16.9970
3.8352,16.9883
3.8850,16.9550
3.9183,16.9052
3.9270,16.8613
3.9270,16.7760
3.9340,16.7590
3.9510,16.7520
6.5025,16.7520
6.5025,16.7520
6.5620,16.7402
6.5620,16.7402
6.5620,16.7402
6.5687,16.7374
6.5790,16.7331
6.6141,16.7128
6.6631,16.6490
6.6702,16.6320
6.6820,16.5725
6.6820,15.0820
7.3067,15.0820
7.4967,15.1556
7.7153,15.1965
7.9377,15.1965
8.1563,15.1556
8.3463,15.0820
7.8265,14.5622
7.3067,15.0820
6.6820,15.0820
6.6820,14.4922
6.6890,14.4753
6.7060,14.4682
6.7230,14.4753
6.7275,14.4815
6.7435,14.5138
7.3957,13.8616
7.3727,13.9625
7.3828,14.0978
7.4324,14.2240
7.5170,14.3301
7.6290,14.4065
7.7587,14.4465
7.8602,14.4465
7.9606,14.4314
8.0829,14.3725
8.1823,14.2802
8.2501,14.1628
8.2803,14.0305
8.2778,13.9965
8.3922,13.9965
8.9095,14.5138
8.9503,14.4318
9.0111,14.2179
9.0316,13.9965
9.0111,13.7751
8.9503,13.5612
8.9095,13.4792
8.3922,13.9965
8.2778,13.9965
8.2702,13.8952
8.2206,13.7690
8.1360,13.6629
8.0240,13.5865
7.8943,13.5465
7.7928,13.5465
7.6963,13.5610
7.8265,13.4308
8.3745,12.8828
8.4159,12.7779
8.4159,12.7779
8.4265,12.6896
8.4265,12.6896
8.4265,12.5965
8.4265,12.5965
7.1755,12.5965
7.1585,12.5895
7.1515,12.5725
7.1515,11.8205
7.1585,11.8035
7.1755,11.7965
8.4265,11.7965
8.4265,11.7965
8.4265,11.7034
8.4265,11.7034
8.4159,11.6151
8.4159,11.6151
8.3823,11.5298
8.3826,11.5114
8.3958,11.4987
8.4046,11.4970
10.3020,11.4970
Z" /> 
</g>
</g>
<g style="fill:#000000; fill-opacity:1.0000; 
stroke:#000000; stroke-width:0.0000; stroke-opacity:1; 
stroke-linecap:round; stroke-linejoin:round;">
<g >
<path style="fill:#000000; fill-opacity:1.0000; 
stroke:#000000; stroke-width:0.0000; stroke-opacity:1; 
stroke-linecap:round; stroke-linejoin:round;fill-rule:evenodd;"
d="M 4.7708,11.5040
4.7778,11.5210
4.7742,11.5319
4.7750,11.5323
4.7742,11.5339
4.7294,11.6619
4.7265,11.6923
4.7265,11.7965
4.7265,11.7965
6.2765,11.7965
6.2765,11.7965
6.2765,11.6923
6.2736,11.6619
6.2736,11.6619
6.2288,11.5339
6.2280,11.5323
6.2290,11.5317
6.2255,11.5174
6.2350,11.5017
6.2492,11.4970
6.5025,11.4970
6.5195,11.5040
6.5265,11.5210
6.5265,16.5725
6.5195,16.5895
6.5025,16.5965
4.0265,16.5965
3.9510,16.5965
3.9340,16.5895
3.9270,16.5725
3.9270,14.9317
3.9270,14.9317
3.9239,14.9162
4.1865,14.9162
4.1981,14.9745
4.1981,14.9745
4.2423,15.0407
4.2423,15.0407
4.3085,15.0849
4.3085,15.0849
4.3668,15.0965
4.3668,15.0965
4.8865,15.0965
4.8865,15.0965
5.6865,15.0965
5.6865,15.0965
6.2062,15.0965
6.2062,15.0965
6.2645,15.0849
6.2645,15.0849
6.3307,15.0407
6.3307,15.0407
6.3749,14.9745
6.3749,14.9745
6.3865,14.9162
6.3865,14.9162
6.3865,14.3965
6.3865,14.3965
5.6865,14.3965
5.6865,14.3965
5.6865,15.0965
4.8865,15.0965
4.8865,14.3965
4.8865,14.3965
4.1865,14.3965
4.1865,14.3965
4.1865,14.9162
3.9239,14.9162
3.9183,14.8878
3.8850,14.8380
3.8850,14.8380
3.8848,14.8378
3.8352,14.8047
3.7913,14.7960
3.7913,14.7960
2.9617,14.7960
2.9617,14.7960
2.9178,14.8047
2.8680,14.8380
2.8680,14.8380
2.8347,14.8878
2.8260,14.9317
2.8260,15.0850
2.8190,15.1019
2.8020,15.1090
2.7911,15.1064
2.7018,15.0609
2.6643,15.0549
2.6080,15.0460
2.6080,15.0460
1.6450,15.0460
1.5512,15.0609
1.4382,15.1184
1.4382,15.1184
1.4382,15.1184
1.3680,15.1886
1.3510,15.1957
1.3340,15.1886
1.3270,15.1717
1.3270,14.4954
1.3340,14.4784
1.3510,14.4714
1.3653,14.4761
1.4639,14.5488
1.5919,14.5936
1.6223,14.5965
1.7265,14.5965
1.7265,14.5965
2.5265,14.5965
2.5265,14.5965
2.6307,14.5965
2.6611,14.5936
2.6611,14.5936
2.7891,14.5488
2.8983,14.4683
2.8983,14.4683
2.9788,14.3591
3.0236,14.2311
3.0265,14.2007
3.0265,14.1965
3.0265,14.1965
2.5265,14.1965
2.5265,14.1965
2.5265,14.5965
1.7265,14.5965
1.7265,13.9625
4.8327,13.9625
4.8428,14.0978
4.8924,14.2240
4.9770,14.3301
5.0890,14.4065
5.2187,14.4465
5.3202,14.4465
5.4206,14.4314
5.5429,14.3725
5.6423,14.2802
5.7101,14.1628
5.7403,14.0305
5.7302,13.8952
5.6806,13.7690
5.5960,13.6629
5.4986,13.5965
5.6865,13.5965
5.6865,13.5965
6.3865,13.5965
6.3865,13.5965
6.3865,13.0768
6.3865,13.0768
6.3749,13.0185
6.3749,13.0185
6.3307,12.9523
6.3307,12.9523
6.2645,12.9081
6.2645,12.9081
6.2390,12.9030
6.2237,12.8928
6.2201,12.8748
6.2244,12.8652
6.2288,12.8591
6.2736,12.7311
6.2765,12.7007
6.2765,12.5965
6.2765,12.5965
5.9015,12.5965
5.9015,12.5965
5.9015,13.1125
5.8945,13.1295
5.8775,13.1365
5.6865,13.1365
5.6865,13.1365
5.6865,13.5965
5.4986,13.5965
5.4840,13.5865
5.3543,13.5465
5.2528,13.5465
5.1524,13.5616
5.0301,13.6205
4.9307,13.7128
4.8629,13.8302
4.8327,13.9625
1.7265,13.9625
1.7265,13.5965
4.1865,13.5965
4.1865,13.5965
4.8865,13.5965
4.8865,13.5965
4.8865,12.8805
4.8935,12.8635
4.9105,12.8565
5.1015,12.8565
5.1015,12.8565
5.1015,12.5965
5.1015,12.5965
4.7265,12.5965
4.7265,12.5965
4.7265,12.7007
4.7294,12.7311
4.7294,12.7311
4.7742,12.8591
4.7750,12.8607
4.7742,12.8612
4.7779,12.8761
4.7684,12.8918
4.7542,12.8965
4.3668,12.8965
4.3085,12.9081
4.3085,12.9081
4.2423,12.9523
4.2423,12.9523
4.1981,13.0185
4.1981,13.0185
4.1865,13.0768
4.1865,13.5965
1.7265,13.5965
1.7265,13.3965
2.5265,13.3965
2.5265,13.3965
3.0265,13.3965
3.0265,13.3965
3.0265,13.3923
3.0236,13.3619
3.0236,13.3619
2.9788,13.2339
2.8983,13.1247
2.8983,13.1247
2.7891,13.0442
2.6611,12.9993
2.6307,12.9965
2.5265,12.9965
2.5265,12.9965
2.5265,13.3965
1.7265,13.3965
1.7265,12.9965
1.7265,12.9965
1.6223,12.9965
1.5919,12.9993
1.5919,12.9994
1.4639,13.0442
1.3653,13.1169
1.3474,13.1213
1.3317,13.1119
1.3270,13.0976
1.3270,11.5210
1.3340,11.5040
1.3510,11.4970
4.7538,11.4970
Z" /> 
</g>
</g>
</g>
<g style="fill:#000000; fill-opacity:1.0000; 
stroke:#000000; stroke-width:0.0000; stroke-opacity:1; 
stroke-linecap:round; stroke-linejoin:round;">
</g>
<g style="fill:#000000; fill-opacity:0.0; 
stroke:#000000; stroke-width:0.1000; stroke-opacity:1; 
stroke-linecap:round; stroke-linejoin:round;">
<path style="fill:#000000; fill-opacity:0.0; 
stroke:#000000; stroke-width:0.1000; stroke-opacity:1; 
stroke-linecap:round; stroke-linejoin:round;fill:none"
d="M 1.3265,11.4965
10.3265,11.4965
10.3265,29.4965
1.3265,29.4965
Z" /> 
<g >
</g>
<g >
</g>
<g >
</g>
<g >
</g>
<g >
</g>
<g >
</g>
<g >
</g>
<g >
</g>
<g >
</g>
<g >
</g>
<g >
</g>
<g >
</g>
</g> 
</svg>
