<?xml version="1.0" standalone="no"?>
 <!DOCTYPE svg PUBLIC "-//W3C//DTD SVG 1.1//EN" 
 "http://www.w3.org/Graphics/SVG/1.1/DTD/svg11.dtd"> 
<svg
  xmlns:svg="http://www.w3.org/2000/svg"
  xmlns="http://www.w3.org/2000/svg"
  xmlns:xlink="http://www.w3.org/1999/xlink"
  version="1.1"
  width="10.3632mm" height="30.8864mm" viewBox="0.0000 0.0000 10.3632 30.8864">
<title>SVG Image created as Pedal_Proxy_Sensor_PCB-F_Mask.svg date 2024/06/08 06:15:15 </title>
  <desc>Image generated by PCBNEW </desc>
<g style="fill:#000000; fill-opacity:1.0000;stroke:#000000; stroke-opacity:1.0000;
stroke-linecap:round; stroke-linejoin:round;"
 transform="translate(0 0) scale(1 1)">
</g>
<g style="fill:#000000; fill-opacity:0.0; 
stroke:#000000; stroke-width:0.0000; stroke-opacity:1; 
stroke-linecap:round; stroke-linejoin:round;">
<g >
</g>
<g style="fill:#000000; fill-opacity:0.0; 
stroke:#000000; stroke-width:0.0000; stroke-opacity:1; 
stroke-linecap:round; stroke-linejoin:round;">
</g>
<g style="fill:#000000; fill-opacity:1.0000; 
stroke:#000000; stroke-width:0.0000; stroke-opacity:1; 
stroke-linecap:round; stroke-linejoin:round;">
<path style="fill:#000000; fill-opacity:1.0000; 
stroke:#000000; stroke-width:0.0000; stroke-opacity:1; 
stroke-linecap:round; stroke-linejoin:round;fill-rule:evenodd;"
d="M 4.3135,28.2565
4.3057,28.2955
4.2836,28.3286
4.2505,28.3507
4.2115,28.3585
3.5215,28.3585
3.4825,28.3507
3.4494,28.3286
3.4273,28.2955
3.4195,28.2565
3.4195,26.6865
3.4273,26.6475
3.4494,26.6144
3.4825,26.5923
3.5215,26.5845
4.2115,26.5845
4.2505,26.5923
4.2836,26.6144
4.3057,26.6475
4.3135,26.6865
Z" /> 
<path style="fill:#000000; fill-opacity:1.0000; 
stroke:#000000; stroke-width:0.0000; stroke-opacity:1; 
stroke-linecap:round; stroke-linejoin:round;fill-rule:evenodd;"
d="M 4.3135,24.3065
4.3057,24.3455
4.2836,24.3786
4.2505,24.4007
4.2115,24.4085
3.5215,24.4085
3.4825,24.4007
3.4494,24.3786
3.4273,24.3455
3.4195,24.3065
3.4195,22.7365
3.4273,22.6975
3.4494,22.6644
3.4825,22.6423
3.5215,22.6345
4.2115,22.6345
4.2505,22.6423
4.2836,22.6644
4.3057,22.6975
4.3135,22.7365
Z" /> 
<path style="fill:#000000; fill-opacity:1.0000; 
stroke:#000000; stroke-width:0.0000; stroke-opacity:1; 
stroke-linecap:round; stroke-linejoin:round;fill-rule:evenodd;"
d="M 2.5135,24.3065
2.5057,24.3455
2.4836,24.3786
2.4505,24.4007
2.4115,24.4085
1.7215,24.4085
1.6825,24.4007
1.6494,24.3786
1.6273,24.3455
1.6195,24.3065
1.6195,22.7365
1.6273,22.6975
1.6494,22.6644
1.6825,22.6423
1.7215,22.6345
2.4115,22.6345
2.4505,22.6423
2.4836,22.6644
2.5057,22.6975
2.5135,22.7365
Z" /> 
<path style="fill:#000000; fill-opacity:1.0000; 
stroke:#000000; stroke-width:0.0000; stroke-opacity:1; 
stroke-linecap:round; stroke-linejoin:round;fill-rule:evenodd;"
d="M 2.5135,28.2565
2.5057,28.2955
2.4836,28.3286
2.4505,28.3507
2.4115,28.3585
1.7215,28.3585
1.6825,28.3507
1.6494,28.3286
1.6273,28.2955
1.6195,28.2565
1.6195,26.6865
1.6273,26.6475
1.6494,26.6144
1.6825,26.5923
1.7215,26.5845
2.4115,26.5845
2.4505,26.5923
2.4836,26.6144
2.5057,26.6475
2.5135,26.6865
Z" /> 
</g>
<g >
</g>
<g style="fill:#000000; fill-opacity:1.0000; 
stroke:#000000; stroke-width:0.0000; stroke-opacity:1; 
stroke-linecap:round; stroke-linejoin:round;">
<path style="fill:#000000; fill-opacity:1.0000; 
stroke:#000000; stroke-width:0.0000; stroke-opacity:1; 
stroke-linecap:round; stroke-linejoin:round;fill-rule:evenodd;"
d="M 1.9265,20.5590
1.9446,20.4681
1.9961,20.3911
2.0731,20.3396
2.1640,20.3215
2.6640,20.3215
2.7549,20.3396
2.8319,20.3911
2.8834,20.4681
2.9015,20.5590
2.9015,21.0340
2.8834,21.1249
2.8319,21.2019
2.7549,21.2534
2.6640,21.2715
2.1640,21.2715
2.0731,21.2534
1.9961,21.2019
1.9446,21.1249
1.9265,21.0340
Z" /> 
<path style="fill:#000000; fill-opacity:1.0000; 
stroke:#000000; stroke-width:0.0000; stroke-opacity:1; 
stroke-linecap:round; stroke-linejoin:round;fill-rule:evenodd;"
d="M 3.7515,20.5590
3.7696,20.4681
3.8211,20.3911
3.8981,20.3396
3.9890,20.3215
4.4890,20.3215
4.5799,20.3396
4.6569,20.3911
4.7084,20.4681
4.7265,20.5590
4.7265,21.0340
4.7084,21.1249
4.6569,21.2019
4.5799,21.2534
4.4890,21.2715
3.9890,21.2715
3.8981,21.2534
3.8211,21.2019
3.7696,21.1249
3.7515,21.0340
Z" /> 
</g>
<g >
</g>
<g style="fill:#000000; fill-opacity:1.0000; 
stroke:#000000; stroke-width:0.0000; stroke-opacity:1; 
stroke-linecap:round; stroke-linejoin:round;">
<path style="fill:#000000; fill-opacity:1.0000; 
stroke:#000000; stroke-width:0.0000; stroke-opacity:1; 
stroke-linecap:round; stroke-linejoin:round;fill-rule:evenodd;"
d="M 5.2890,24.9965
5.1981,24.9784
5.1211,24.9269
5.0696,24.8499
5.0515,24.7590
5.0515,24.2590
5.0696,24.1681
5.1211,24.0911
5.1981,24.0396
5.2890,24.0215
5.7640,24.0215
5.8549,24.0396
5.9319,24.0911
5.9834,24.1681
6.0015,24.2590
6.0015,24.7590
5.9834,24.8499
5.9319,24.9269
5.8549,24.9784
5.7640,24.9965
Z" /> 
<path style="fill:#000000; fill-opacity:1.0000; 
stroke:#000000; stroke-width:0.0000; stroke-opacity:1; 
stroke-linecap:round; stroke-linejoin:round;fill-rule:evenodd;"
d="M 5.2890,23.1715
5.1981,23.1534
5.1211,23.1019
5.0696,23.0249
5.0515,22.9340
5.0515,22.4340
5.0696,22.3431
5.1211,22.2661
5.1981,22.2146
5.2890,22.1965
5.7640,22.1965
5.8549,22.2146
5.9319,22.2661
5.9834,22.3431
6.0015,22.4340
6.0015,22.9340
5.9834,23.0249
5.9319,23.1019
5.8549,23.1534
5.7640,23.1715
Z" /> 
</g>
<g >
</g>
<g style="fill:#000000; fill-opacity:1.0000; 
stroke:#000000; stroke-width:0.0000; stroke-opacity:1; 
stroke-linecap:round; stroke-linejoin:round;">
<path style="fill:#000000; fill-opacity:1.0000; 
stroke:#000000; stroke-width:0.0000; stroke-opacity:1; 
stroke-linecap:round; stroke-linejoin:round;fill-rule:evenodd;"
d="M 5.7640,25.4665
5.8549,25.4846
5.9319,25.5361
5.9834,25.6131
6.0015,25.7040
6.0015,26.2040
5.9834,26.2949
5.9319,26.3719
5.8549,26.4234
5.7640,26.4415
5.2890,26.4415
5.1981,26.4234
5.1211,26.3719
5.0696,26.2949
5.0515,26.2040
5.0515,25.7040
5.0696,25.6131
5.1211,25.5361
5.1981,25.4846
5.2890,25.4665
Z" /> 
<path style="fill:#000000; fill-opacity:1.0000; 
stroke:#000000; stroke-width:0.0000; stroke-opacity:1; 
stroke-linecap:round; stroke-linejoin:round;fill-rule:evenodd;"
d="M 5.7640,27.2915
5.8549,27.3096
5.9319,27.3611
5.9834,27.4381
6.0015,27.5290
6.0015,28.0290
5.9834,28.1199
5.9319,28.1969
5.8549,28.2484
5.7640,28.2665
5.2890,28.2665
5.1981,28.2484
5.1211,28.1969
5.0696,28.1199
5.0515,28.0290
5.0515,27.5290
5.0696,27.4381
5.1211,27.3611
5.1981,27.3096
5.2890,27.2915
Z" /> 
</g>
<g >
</g>
<g style="fill:#000000; fill-opacity:1.0000; 
stroke:#000000; stroke-width:0.0000; stroke-opacity:1; 
stroke-linecap:round; stroke-linejoin:round;">
<path style="fill:#000000; fill-opacity:1.0000; 
stroke:#000000; stroke-width:0.0000; stroke-opacity:1; 
stroke-linecap:round; stroke-linejoin:round;fill-rule:evenodd;"
d="M 2.8265,19.8465
2.0265,19.8465
2.0265,17.9465
2.8265,17.9465
Z" /> 
<path style="fill:#000000; fill-opacity:1.0000; 
stroke:#000000; stroke-width:0.0000; stroke-opacity:1; 
stroke-linecap:round; stroke-linejoin:round;fill-rule:evenodd;"
d="M 4.7265,19.8465
3.9265,19.8465
3.9265,17.9465
4.7265,17.9465
Z" /> 
<path style="fill:#000000; fill-opacity:1.0000; 
stroke:#000000; stroke-width:0.0000; stroke-opacity:1; 
stroke-linecap:round; stroke-linejoin:round;fill-rule:evenodd;"
d="M 3.7765,16.8465
2.9765,16.8465
2.9765,14.9465
3.7765,14.9465
Z" /> 
</g>
<g >
</g>
<g style="fill:#000000; fill-opacity:1.0000; 
stroke:#000000; stroke-width:0.0000; stroke-opacity:1; 
stroke-linecap:round; stroke-linejoin:round;">
<path style="fill:#000000; fill-opacity:1.0000; 
stroke:#000000; stroke-width:0.0000; stroke-opacity:1; 
stroke-linecap:round; stroke-linejoin:round;fill-rule:evenodd;"
d="M 1.6765,16.3965
1.5808,16.3775
1.4997,16.3233
1.4455,16.2422
1.4265,16.1465
1.4265,15.4465
1.4455,15.3508
1.4997,15.2697
1.5808,15.2155
1.6765,15.1965
2.5765,15.1965
2.6722,15.2155
2.7533,15.2697
2.8075,15.3508
2.8265,15.4465
2.8265,16.1465
2.8075,16.2422
2.7533,16.3233
2.6722,16.3775
2.5765,16.3965
Z" /> 
<path style="fill:#000000; fill-opacity:1.0000; 
stroke:#000000; stroke-width:0.0000; stroke-opacity:1; 
stroke-linecap:round; stroke-linejoin:round;fill-rule:evenodd;"
d="M 1.6765,14.3965
1.5808,14.3775
1.4997,14.3233
1.4455,14.2422
1.4265,14.1465
1.4265,13.4465
1.4455,13.3508
1.4997,13.2697
1.5808,13.2155
1.6765,13.1965
2.5765,13.1965
2.6722,13.2155
2.7533,13.2697
2.8075,13.3508
2.8265,13.4465
2.8265,14.1465
2.8075,14.2422
2.7533,14.3233
2.6722,14.3775
2.5765,14.3965
Z" /> 
</g>
<g >
</g>
<g style="fill:#000000; fill-opacity:1.0000; 
stroke:#000000; stroke-width:0.0000; stroke-opacity:1; 
stroke-linecap:round; stroke-linejoin:round;">
<path style="fill:#000000; fill-opacity:1.0000; 
stroke:#000000; stroke-width:0.0000; stroke-opacity:1; 
stroke-linecap:round; stroke-linejoin:round;fill-rule:evenodd;"
d="M 4.9265,11.7465
4.9455,11.6508
4.9997,11.5697
5.0808,11.5155
5.1765,11.4965
5.8265,11.4965
5.9222,11.5155
6.0033,11.5697
6.0575,11.6508
6.0765,11.7465
6.0765,12.6465
6.0575,12.7422
6.0033,12.8233
5.9222,12.8775
5.8265,12.8965
5.1765,12.8965
5.0808,12.8775
4.9997,12.8233
4.9455,12.7422
4.9265,12.6465
Z" /> 
<path style="fill:#000000; fill-opacity:1.0000; 
stroke:#000000; stroke-width:0.0000; stroke-opacity:1; 
stroke-linecap:round; stroke-linejoin:round;fill-rule:evenodd;"
d="M 6.9765,11.7465
6.9955,11.6508
7.0497,11.5697
7.1308,11.5155
7.2265,11.4965
7.8765,11.4965
7.9722,11.5155
8.0533,11.5697
8.1075,11.6508
8.1265,11.7465
8.1265,12.6465
8.1075,12.7422
8.0533,12.8233
7.9722,12.8775
7.8765,12.8965
7.2265,12.8965
7.1308,12.8775
7.0497,12.8233
6.9955,12.7422
6.9765,12.6465
Z" /> 
</g>
<g >
</g>
<g style="fill:#000000; fill-opacity:1.0000; 
stroke:#000000; stroke-width:0.0000; stroke-opacity:1; 
stroke-linecap:round; stroke-linejoin:round;">
<path style="fill:#000000; fill-opacity:1.0000; 
stroke:#000000; stroke-width:0.0000; stroke-opacity:1; 
stroke-linecap:round; stroke-linejoin:round;fill-rule:evenodd;"
d="M 8.4265,28.8237
6.2265,28.8237
6.2265,27.0237
8.4265,27.0237
Z" /> 
<path style="fill:#000000; fill-opacity:1.0000; 
stroke:#000000; stroke-width:0.0000; stroke-opacity:1; 
stroke-linecap:round; stroke-linejoin:round;fill-rule:evenodd;"
d="M 6.2765,26.3237
6.1928,26.3159
6.0662,26.2716
5.9583,26.1919
5.8786,26.0840
5.8343,25.9574
5.8265,25.8737
5.8265,24.9737
5.8343,24.8901
5.8786,24.7634
5.9583,24.6555
6.0662,24.5759
6.1928,24.5316
6.2765,24.5237
7.5765,24.5237
7.6602,24.5316
7.7868,24.5759
7.8947,24.6555
7.9744,24.7634
8.0187,24.8901
8.0265,24.9737
8.0265,25.8737
8.0187,25.9574
7.9744,26.0840
7.8947,26.1919
7.7868,26.2716
7.6602,26.3159
7.5765,26.3237
Z" /> 
</g>
<g style="fill:#000000; fill-opacity:1.0000; 
stroke:#000000; stroke-width:1.8000; stroke-opacity:1; 
stroke-linecap:round; stroke-linejoin:round;">
</g>
<g style="fill:#000000; fill-opacity:0.0; 
stroke:#000000; stroke-width:1.8000; stroke-opacity:1; 
stroke-linecap:round; stroke-linejoin:round;">
<path d="M6.7265 22.9237
L7.1265 22.9237
" />
</g>
<g >
</g>
<g style="fill:#000000; fill-opacity:0.0; 
stroke:#000000; stroke-width:1.8000; stroke-opacity:1; 
stroke-linecap:round; stroke-linejoin:round;">
</g>
<g style="fill:#000000; fill-opacity:0.0; 
stroke:#000000; stroke-width:0.0000; stroke-opacity:1; 
stroke-linecap:round; stroke-linejoin:round;">
</g>
<g style="fill:#000000; fill-opacity:1.0000; 
stroke:#000000; stroke-width:0.0000; stroke-opacity:1; 
stroke-linecap:round; stroke-linejoin:round;">
<path style="fill:#000000; fill-opacity:1.0000; 
stroke:#000000; stroke-width:0.0000; stroke-opacity:1; 
stroke-linecap:round; stroke-linejoin:round;fill-rule:evenodd;"
d="M 4.3865,14.8965
4.3865,13.0965
6.1865,13.0965
6.1865,14.8965
Z" /> 
<circle cx="7.8265" cy="13.9965" r="0.9000" /> 
</g>
<g style="fill:#000000; fill-opacity:1.0000; 
stroke:#000000; stroke-width:0.0212; stroke-opacity:1; 
stroke-linecap:round; stroke-linejoin:round;">
</g>
<g >
</g>
<g >
</g>
<g >
</g>
</g>
<g style="fill:#000000; fill-opacity:1.0000; 
stroke:#000000; stroke-width:0.0212; stroke-opacity:1; 
stroke-linecap:round; stroke-linejoin:round;">
</g>
<g style="fill:#000000; fill-opacity:0.0; 
stroke:#000000; stroke-width:0.1000; stroke-opacity:1; 
stroke-linecap:round; stroke-linejoin:round;">
<path style="fill:#000000; fill-opacity:0.0; 
stroke:#000000; stroke-width:0.1000; stroke-opacity:1; 
stroke-linecap:round; stroke-linejoin:round;fill:none"
d="M 1.3265,11.4965
10.3265,11.4965
10.3265,29.4965
1.3265,29.4965
Z" /> 
<g >
</g>
<g >
</g>
<g >
</g>
<g >
</g>
<g >
</g>
<g >
</g>
<g >
</g>
<g >
</g>
<g >
</g>
<g >
</g>
<g >
</g>
<g >
</g>
</g> 
</svg>
